<svg width="493" height="130" viewBox="0 0 493 130" fill="none" xmlns="http://www.w3.org/2000/svg">
<path d="M26.56 63.496C24.512 63.496 22.4853 63.24 20.48 62.728C18.4747 62.2587 16.64 61.4907 14.976 60.424C13.312 59.3573 11.9893 57.992 11.008 56.328C10.0267 54.664 9.536 52.6587 9.536 50.312C9.536 48.0933 9.984 45.96 10.88 43.912C11.776 41.864 12.928 39.944 14.336 38.152C15.7867 36.36 17.28 34.76 18.816 33.352C20.992 31.3893 23.4667 29.4907 26.24 27.656C29.0133 25.8213 31.9573 24.1787 35.072 22.728C38.2293 21.2773 41.408 20.1253 44.608 19.272C47.808 18.4187 50.88 17.992 53.824 17.992C55.104 17.992 56.4907 18.184 57.984 18.568C59.52 18.952 60.8213 19.592 61.888 20.488C62.9973 21.384 63.552 22.6427 63.552 24.264C63.552 25.7147 63.0613 27.144 62.08 28.552C61.0987 29.96 59.7973 31.2827 58.176 32.52C56.5547 33.7573 54.7627 34.9093 52.8 35.976C50.8373 37 48.832 37.9173 46.784 38.728C44.7787 39.496 42.88 40.1147 41.088 40.584C39.296 41.0533 37.7813 41.352 36.544 41.48C36.2453 41.5227 35.9467 41.544 35.648 41.544C35.3493 41.544 35.0507 41.544 34.752 41.544C34.496 41.544 33.9627 41.5227 33.152 41.48C32.3413 41.3947 31.5733 41.2453 30.848 41.032C30.1227 40.8187 29.76 40.4987 29.76 40.072C29.76 39.8587 29.888 39.752 30.144 39.752C30.3147 39.752 30.528 39.7947 30.784 39.88C31.04 39.9653 31.36 40.008 31.744 40.008C32.768 40.008 34.0907 39.752 35.712 39.24C37.3333 38.728 39.0827 38.0453 40.96 37.192C42.88 36.296 44.7787 35.2933 46.656 34.184C48.5333 33.0747 50.2613 31.9013 51.84 30.664C53.4187 29.4267 54.6773 28.1893 55.616 26.952C56.5547 25.7147 57.024 24.5413 57.024 23.432C57.024 22.408 56.6613 21.6613 55.936 21.192C55.2107 20.68 54.3573 20.3387 53.376 20.168C52.3947 19.9973 51.5413 19.912 50.816 19.912C48.128 19.912 45.3547 20.3173 42.496 21.128C39.68 21.9387 36.8853 23.048 34.112 24.456C31.3813 25.8213 28.7787 27.3573 26.304 29.064C23.872 30.7707 21.696 32.52 19.776 34.312C18.4533 35.5493 17.1307 36.9787 15.808 38.6C14.528 40.1787 13.4613 41.8853 12.608 43.72C11.7547 45.512 11.328 47.368 11.328 49.288C11.328 51.4213 11.84 53.2133 12.864 54.664C13.888 56.1147 15.2107 57.288 16.832 58.184C18.496 59.0373 20.288 59.656 22.208 60.04C24.128 60.424 25.9627 60.616 27.712 60.616C28.8213 60.616 29.9307 60.5733 31.04 60.488C32.1493 60.36 33.2373 60.2107 34.304 60.04C37.1627 59.528 39.7653 58.9093 42.112 58.184C44.5013 57.4587 46.784 56.52 48.96 55.368C51.136 54.216 53.3547 52.7227 55.616 50.888C55.7867 50.8027 55.8933 50.76 55.936 50.76C56.1493 50.76 56.256 50.888 56.256 51.144C56.256 51.272 56.1707 51.464 56 51.72C54.336 53.512 52.3093 55.1333 49.92 56.584C47.5733 58.0347 45.056 59.272 42.368 60.296C39.68 61.32 36.9707 62.1093 34.24 62.664C31.5093 63.2187 28.9493 63.496 26.56 63.496ZM58.928 61.576C57.264 61.576 56.0053 61.1707 55.152 60.36C54.3413 59.5067 53.936 58.4187 53.936 57.096C53.936 56.2853 54.0427 55.496 54.256 54.728C54.4693 53.96 54.704 53.2773 54.96 52.68C54.6613 52.9787 54.3627 53.256 54.064 53.512C53.808 53.7253 53.5947 53.896 53.424 54.024C53.2533 54.152 53.104 54.216 52.976 54.216C52.8053 54.216 52.72 54.1093 52.72 53.896C52.72 53.5973 52.9333 53.256 53.36 52.872C54.8533 51.6347 56.0267 50.5467 56.88 49.608C57.7333 48.6267 58.6293 47.7307 59.568 46.92C61.1467 45.5547 62.832 44.488 64.624 43.72C66.416 42.952 68.208 42.568 70 42.568C71.8773 42.568 73.3493 43.016 74.416 43.912C75.4827 44.808 76.016 46.1307 76.016 47.88C76.016 48.8613 75.7173 49.992 75.12 51.272C74.5653 52.552 73.6693 53.8747 72.432 55.24C71.92 55.7947 71.344 56.3493 70.704 56.904C70.064 57.416 69.5093 57.8 69.04 58.056C71.1307 57.8427 73.0933 57.1173 74.928 55.88C76.7627 54.6 78.4053 53.3413 79.856 52.104C80.0693 51.976 80.2187 51.912 80.304 51.912C80.5173 51.912 80.624 52.0187 80.624 52.232C80.624 52.4027 80.5173 52.5947 80.304 52.808C78.4693 54.5573 76.4853 56.0293 74.352 57.224C72.2613 58.4187 69.936 58.9947 67.376 58.952C65.8827 59.7627 64.4107 60.4027 62.96 60.872C61.552 61.3413 60.208 61.576 58.928 61.576ZM61.808 59.784C62.4053 59.784 63.0453 59.6773 63.728 59.464C64.4107 59.2507 65.0933 58.9733 65.776 58.632C65.52 58.632 65.264 58.504 65.008 58.248C64.7947 57.992 64.688 57.6507 64.688 57.224C64.688 56.3707 65.008 55.496 65.648 54.6C66.288 53.704 67.0773 52.936 68.016 52.296C68.9547 51.656 69.872 51.336 70.768 51.336C71.28 51.336 71.7493 51.4853 72.176 51.784C72.6453 52.04 72.9013 52.4027 72.944 52.872C73.6693 52.0613 74.16 51.1867 74.416 50.248C74.7147 49.3093 74.864 48.4347 74.864 47.624C74.864 46.5147 74.5013 45.6827 73.776 45.128C73.0933 44.5307 72.1547 44.232 70.96 44.232C69.808 44.232 68.528 44.6373 67.12 45.448C65.7547 46.2587 64.4533 47.304 63.216 48.584C62.0213 49.864 61.0187 51.2507 60.208 52.744C59.44 54.2373 59.056 55.6667 59.056 57.032C59.056 58.8667 59.9733 59.784 61.808 59.784ZM83.0825 61.064C81.7598 61.064 80.7358 60.6587 80.0105 59.848C79.2852 58.9947 78.9225 57.9067 78.9225 56.584C78.9225 55.3467 79.2425 53.9813 79.8825 52.488C80.5652 50.9947 81.6318 49.48 83.0825 47.944C84.5758 46.3227 86.4318 45.0213 88.6505 44.04C90.8692 43.016 92.9812 42.504 94.9865 42.504C96.6078 42.504 97.9945 42.8667 99.1465 43.592C100.299 44.2747 101.067 45.1493 101.451 46.216C101.92 46.216 102.496 46.344 103.179 46.6C103.904 46.856 104.267 47.3253 104.267 48.008C104.267 48.4773 104.032 49.0107 103.563 49.608C103.264 50.0347 102.731 50.6747 101.963 51.528C101.237 52.3813 100.555 53.2987 99.9145 54.28C99.4025 55.048 98.9972 55.7733 98.6985 56.456C98.3998 57.096 98.2505 57.6507 98.2505 58.12C98.2505 58.76 98.5705 59.08 99.2105 59.08C99.9358 59.08 101.024 58.6747 102.475 57.864C104.053 56.968 105.568 55.944 107.019 54.792C108.469 53.64 109.6 52.7227 110.411 52.04C110.624 51.8693 110.773 51.784 110.859 51.784C111.029 51.784 111.115 51.8907 111.115 52.104C111.115 52.36 111.008 52.5947 110.795 52.808C110.411 53.1493 109.664 53.7893 108.555 54.728C107.445 55.6667 106.165 56.648 104.715 57.672C103.307 58.696 101.92 59.528 100.555 60.168C99.8718 60.4667 99.2318 60.7013 98.6345 60.872C98.0798 61 97.5678 61.064 97.0985 61.064C95.9465 61.064 95.0718 60.744 94.4745 60.104C93.8772 59.4213 93.5785 58.5467 93.5785 57.48C93.5785 57.0533 93.6425 56.6053 93.7705 56.136C93.8985 55.6667 94.0478 55.1973 94.2185 54.728L94.6665 53.64C93.5572 55.0053 92.4478 56.1573 91.3385 57.096C90.2292 57.992 89.1198 58.7813 88.0105 59.464C87.0718 60.0187 86.1758 60.424 85.3225 60.68C84.5118 60.936 83.7652 61.064 83.0825 61.064ZM85.0665 59.4C85.8345 59.4 86.9438 58.952 88.3945 58.056C89.8452 57.1173 91.5305 55.688 93.4505 53.768C93.7065 53.512 94.1758 53.064 94.8585 52.424C95.5838 51.7413 96.3518 50.9947 97.1625 50.184C97.9732 49.3307 98.6558 48.4987 99.2105 47.688C99.8078 46.8347 100.107 46.1307 100.107 45.576C100.107 44.7653 99.4025 44.36 97.9945 44.36C96.7572 44.36 95.2638 44.8507 93.5145 45.832C91.8078 46.7707 90.1652 48.1787 88.5865 50.056C86.9652 51.976 85.7705 53.64 85.0025 55.048C84.2772 56.4133 83.9145 57.4587 83.9145 58.184C83.9145 58.9947 84.2985 59.4 85.0665 59.4ZM116.144 61.64C114.309 61.64 112.752 61.192 111.472 60.296C110.235 59.3573 109.616 58.0133 109.616 56.264C109.616 54.3867 110.064 52.6373 110.96 51.016C111.899 49.3947 113.115 47.9867 114.608 46.792C116.101 45.5547 117.723 44.5947 119.472 43.912C121.264 43.2293 123.035 42.888 124.784 42.888C126.533 42.888 127.813 43.208 128.624 43.848C129.477 44.488 129.904 45.256 129.904 46.152C129.904 46.7493 129.733 47.3467 129.392 47.944C129.051 48.4987 128.581 48.776 127.984 48.776C127.6 48.776 127.408 48.6267 127.408 48.328C127.408 48.1147 127.472 47.9227 127.6 47.752C128.112 46.856 128.368 46.0667 128.368 45.384C128.368 44.5307 127.92 44.104 127.024 44.104C126.299 44.104 125.36 44.3813 124.208 44.936C123.269 45.3627 122.267 46.024 121.2 46.92C120.176 47.7733 119.216 48.776 118.32 49.928C117.424 51.0373 116.677 52.1893 116.08 53.384C115.525 54.536 115.248 55.624 115.248 56.648C115.248 57.6293 115.525 58.44 116.08 59.08C116.635 59.72 117.467 60.04 118.576 60.04C119.301 60.04 120.155 59.8693 121.136 59.528C122.16 59.1867 123.291 58.632 124.528 57.864C125.552 57.224 126.619 56.456 127.728 55.56C128.88 54.664 129.989 53.7467 131.056 52.808C132.123 51.8693 133.04 51.0587 133.808 50.376C134.064 50.12 134.277 49.992 134.448 49.992C134.619 49.992 134.704 50.0987 134.704 50.312C134.704 50.6107 134.576 50.8667 134.32 51.08C133.211 52.104 131.995 53.2133 130.672 54.408C129.349 55.56 127.963 56.648 126.512 57.672C125.104 58.696 123.717 59.528 122.352 60.168C120.133 61.1493 118.064 61.64 116.144 61.64ZM145.512 61.064C144.445 61.064 143.592 60.7653 142.952 60.168C142.354 59.5707 142.056 58.76 142.056 57.736C142.056 57.096 142.205 56.3707 142.504 55.56C142.802 54.7493 143.272 53.9173 143.912 53.064C144.893 51.7413 145.832 50.5893 146.728 49.608C147.624 48.584 148.285 47.6667 148.712 46.856C149.138 46.088 149.352 45.4907 149.352 45.064C149.352 44.424 148.968 44.104 148.2 44.104C147.517 44.104 146.536 44.488 145.256 45.256C144.018 45.9813 142.717 47.176 141.352 48.84C140.584 49.7787 139.709 50.888 138.728 52.168C137.746 53.4053 136.957 54.5573 136.36 55.624C136.104 56.0933 135.848 56.584 135.592 57.096C135.378 57.5653 135.037 58.376 134.568 59.528C134.44 59.8267 134.077 60.1467 133.48 60.488C132.925 60.8293 132.477 61 132.136 61C131.88 61 131.752 60.8933 131.752 60.68C131.752 60.5093 131.816 60.296 131.944 60.04C132.157 59.656 132.626 58.44 133.352 56.392C134.12 54.344 135.08 51.9333 136.232 49.16C135.592 49.8427 134.888 50.5893 134.12 51.4C133.352 52.168 132.498 52.9147 131.559 53.64C131.389 53.8107 131.197 53.896 130.983 53.896C130.727 53.896 130.599 53.7893 130.599 53.576C130.599 53.4053 130.791 53.1707 131.175 52.872C132.157 52.0187 133.138 51.1227 134.12 50.184C135.101 49.2027 136.168 47.9867 137.32 46.536C137.704 45.5973 138.386 44.2533 139.368 42.504C140.349 40.712 141.522 38.728 142.888 36.552C144.253 34.376 145.768 32.2 147.432 30.024C149.096 27.848 150.802 25.9067 152.552 24.2C154.13 22.664 155.773 21.4907 157.48 20.68C159.229 19.8693 160.808 19.464 162.216 19.464C163.453 19.464 164.456 19.7627 165.224 20.36C165.992 20.9573 166.376 21.9173 166.376 23.24C166.376 24.5627 166.013 25.9707 165.288 27.464C164.562 28.9573 163.794 30.152 162.984 31.048C161.149 33.096 158.973 34.9733 156.456 36.68C153.981 38.3867 151.378 39.8373 148.648 41.032C148.562 41.0747 148.477 41.1173 148.392 41.16C148.306 41.16 148.221 41.16 148.135 41.16C147.837 41.16 147.688 41.0533 147.688 40.84C147.688 40.584 147.922 40.3707 148.392 40.2C150.013 39.4747 151.656 38.5787 153.32 37.512C155.026 36.4453 156.605 35.2933 158.056 34.056C159.506 32.8187 160.722 31.5813 161.704 30.344C162.856 28.8933 163.602 27.72 163.944 26.824C164.285 25.8853 164.456 25.096 164.456 24.456C164.456 23.6027 163.986 23.176 163.048 23.176C162.621 23.176 162.002 23.3893 161.192 23.816C160.381 24.2 159.421 24.84 158.312 25.736C156.605 27.1013 154.834 28.7653 153 30.728C151.208 32.6907 149.437 34.824 147.688 37.128C145.981 39.432 144.36 41.7787 142.824 44.168C141.288 46.5573 139.901 48.8827 138.664 51.144C139.176 50.4187 139.709 49.6933 140.264 48.968C140.818 48.2 141.373 47.5173 141.928 46.92C143.208 45.512 144.466 44.488 145.704 43.848C146.941 43.208 148.05 42.888 149.032 42.888C150.141 42.888 151.037 43.2293 151.72 43.912C152.402 44.552 152.744 45.4267 152.744 46.536C152.744 47.1333 152.637 47.7307 152.424 48.328C152.253 48.8827 152.04 49.3947 151.784 49.864C151.442 50.5893 150.994 51.4427 150.44 52.424C149.885 53.4053 149.352 54.3227 148.84 55.176C147.858 56.7547 147.368 57.8853 147.368 58.568C147.368 58.952 147.538 59.144 147.88 59.144C148.306 59.144 149.01 58.8453 149.992 58.248C150.76 57.7787 151.613 57.1813 152.552 56.456C153.533 55.688 154.493 54.8987 155.432 54.088C156.413 53.2773 157.245 52.5733 157.928 51.976C158.653 51.336 159.122 50.9093 159.336 50.696C159.592 50.44 159.784 50.312 159.912 50.312C160.04 50.312 160.104 50.376 160.104 50.504C160.104 50.7173 159.954 51.016 159.656 51.4C158.546 52.552 157.16 53.8533 155.496 55.304C153.832 56.7547 151.954 58.1627 149.864 59.528C149.053 60.0827 148.264 60.488 147.496 60.744C146.77 60.9573 146.109 61.064 145.512 61.064ZM171.772 41.416C171.175 41.416 170.727 41.224 170.428 40.84C170.129 40.456 169.98 40.0507 169.98 39.624C169.98 38.7707 170.385 37.9387 171.196 37.128C172.007 36.2747 172.86 35.848 173.756 35.848C174.353 35.848 174.801 36.04 175.1 36.424C175.399 36.808 175.548 37.2133 175.548 37.64C175.548 38.536 175.143 39.3893 174.332 40.2C173.564 41.0107 172.711 41.416 171.772 41.416ZM161.98 61.064C160.231 61.064 159.036 60.7013 158.396 59.976C157.799 59.208 157.5 58.3547 157.5 57.416C157.5 56.648 157.628 55.9227 157.884 55.24C158.14 54.5147 158.353 54.0027 158.524 53.704C158.78 53.2773 159.121 52.7867 159.548 52.232C160.017 51.6773 160.529 51.08 161.084 50.44C160.231 51.1653 159.42 51.8693 158.652 52.552C157.927 53.2347 157.329 53.7467 156.86 54.088C156.732 54.216 156.604 54.28 156.476 54.28C156.305 54.28 156.22 54.1733 156.22 53.96C156.22 53.6187 156.455 53.2773 156.924 52.936C158.033 51.9973 159.1 50.9733 160.124 49.864C161.191 48.7547 162.193 47.7307 163.132 46.792C164.071 45.8107 164.903 45.128 165.628 44.744C166.396 44.3173 167.015 44.04 167.484 43.912C167.953 43.784 168.337 43.72 168.636 43.72C169.105 43.72 169.447 43.8053 169.66 43.976C169.873 44.104 169.916 44.2533 169.788 44.424C169.063 45.1493 168.337 46.088 167.612 47.24C166.929 48.3493 166.289 49.5227 165.692 50.76C165.095 51.9973 164.604 53.1707 164.22 54.28C163.879 55.3893 163.708 56.328 163.708 57.096C163.708 58.1627 164.135 58.696 164.988 58.696C165.799 58.696 166.844 58.3333 168.124 57.608C169.447 56.84 170.812 55.88 172.22 54.728C173.671 53.576 175.015 52.4453 176.252 51.336C176.423 51.1653 176.572 51.08 176.7 51.08C176.913 51.08 177.02 51.1867 177.02 51.4C177.063 51.6133 177.02 51.7627 176.892 51.848C175.484 53.1707 173.884 54.5573 172.092 56.008C170.343 57.416 168.572 58.6107 166.78 59.592C165.031 60.5733 163.431 61.064 161.98 61.064ZM174.805 61.32C174.378 61.32 173.866 61.2133 173.269 61C172.672 60.8293 172.074 60.488 171.477 59.976C171.946 59.336 172.629 58.4827 173.525 57.416C174.378 56.3067 175.296 55.0907 176.277 53.768C177.258 52.4453 178.176 51.1227 179.029 49.8C178.346 50.4827 177.6 51.208 176.789 51.976C175.978 52.744 175.168 53.448 174.357 54.088C174.186 54.2587 173.994 54.344 173.781 54.344C173.61 54.344 173.525 54.2587 173.525 54.088C173.525 53.8747 173.696 53.6187 174.037 53.32C175.232 52.2533 176.554 51.0373 178.005 49.672C179.498 48.264 180.586 46.8347 181.269 45.384C181.482 44.872 181.589 44.4027 181.589 43.976C181.589 43.4213 181.482 43.08 181.269 42.952C181.098 42.824 181.013 42.6533 181.013 42.44C181.013 42.056 181.205 41.864 181.589 41.864C181.802 41.864 181.973 41.9067 182.101 41.992C182.57 42.2053 183.018 42.6107 183.445 43.208C183.872 43.8053 184.085 44.7013 184.085 45.896C184.085 46.5787 184 47.368 183.829 48.264C183.658 49.1173 183.36 50.0987 182.933 51.208C183.573 50.3547 184.213 49.5227 184.853 48.712C185.536 47.9013 186.154 47.176 186.709 46.536C187.861 45.2133 189.013 44.2747 190.165 43.72C191.36 43.1227 192.426 42.824 193.365 42.824C194.474 42.824 195.37 43.144 196.053 43.784C196.736 44.424 197.077 45.256 197.077 46.28C197.077 47.0907 196.864 47.9227 196.437 48.776C196.309 49.1173 196.01 49.6507 195.541 50.376C195.072 51.0587 194.56 51.8053 194.005 52.616C193.45 53.4267 192.938 54.152 192.469 54.792C191.914 55.4747 191.53 56.072 191.317 56.584C191.104 57.0533 190.997 57.4373 190.997 57.736C190.997 58.1627 191.232 58.376 191.701 58.376C192.298 58.376 193.13 58.056 194.197 57.416C194.837 57.032 195.562 56.52 196.373 55.88C197.226 55.1973 198.058 54.5147 198.869 53.832C199.722 53.1067 200.405 52.5093 200.917 52.04C201.088 51.8693 201.237 51.784 201.365 51.784C201.536 51.784 201.621 51.8907 201.621 52.104C201.621 52.36 201.514 52.5947 201.301 52.808C200.021 54.0027 198.528 55.304 196.821 56.712C195.157 58.12 193.514 59.208 191.893 59.976C190.57 60.616 189.354 60.936 188.245 60.936C187.306 60.936 186.56 60.7013 186.005 60.232C185.45 59.72 185.173 58.9947 185.173 58.056C185.173 57.3733 185.344 56.5627 185.685 55.624C186.112 54.472 186.709 53.32 187.477 52.168C188.288 51.016 189.12 49.928 189.973 48.904C190.869 47.8373 191.637 46.9413 192.277 46.216C192.832 45.6187 193.109 45.1067 193.109 44.68C193.109 44.296 192.853 44.104 192.341 44.104C191.829 44.104 191.061 44.4027 190.037 45C189.056 45.5547 187.946 46.472 186.709 47.752C184.96 49.5867 183.424 51.5707 182.101 53.704C180.778 55.8373 179.264 57.8427 177.557 59.72C176.618 60.7867 175.701 61.32 174.805 61.32ZM194.866 78.088C192.264 78.088 190.109 77.7893 188.402 77.192C186.696 76.5947 185.33 75.784 184.306 74.76C183.624 74.0347 182.984 73.0747 182.386 71.88C181.789 70.728 181.49 69.7467 181.49 68.936C181.49 68.6373 181.554 68.488 181.682 68.488C181.981 68.488 182.173 68.6587 182.258 69C182.258 69.128 182.408 69.6187 182.706 70.472C182.962 71.3253 183.453 72.264 184.178 73.288C184.904 74.312 185.97 75.208 187.378 75.976C188.786 76.744 190.621 77.128 192.882 77.128C195.57 77.128 197.981 76.488 200.114 75.208C202.248 73.9707 204.147 72.328 205.811 70.28C207.517 68.2747 209.075 66.0773 210.483 63.688C211.891 61.2987 213.235 58.952 214.515 56.648C215.795 54.344 217.096 52.3173 218.419 50.568C217.864 51.1653 217.16 51.912 216.307 52.808C215.496 53.6613 214.621 54.536 213.683 55.432C212.744 56.328 211.848 57.1387 210.995 57.864C210.141 58.5893 209.437 59.1227 208.883 59.464C207.944 60.0187 207.048 60.424 206.195 60.68C205.384 60.936 204.637 61.064 203.955 61.064C202.632 61.064 201.608 60.6587 200.883 59.848C200.157 58.9947 199.794 57.9067 199.794 56.584C199.794 55.3467 200.114 53.9813 200.755 52.488C201.437 50.9947 202.504 49.48 203.955 47.944C205.448 46.3227 207.304 45.0213 209.523 44.04C211.741 43.016 213.853 42.504 215.859 42.504C216.584 42.504 217.288 42.5893 217.971 42.76C218.653 42.888 219.272 43.1227 219.827 43.464C220.595 43.9333 221.149 44.3813 221.491 44.808C221.875 45.192 222.152 45.6613 222.323 46.216C222.579 46.216 222.984 46.344 223.539 46.6C224.093 46.8133 224.605 47.0907 225.075 47.432C225.544 47.7307 225.779 48.0507 225.779 48.392C225.779 48.5627 225.608 48.7547 225.267 48.968C224.413 49.3947 223.453 50.4187 222.387 52.04C221.32 53.6187 220.125 55.5173 218.803 57.736C217.523 59.912 216.072 62.1733 214.451 64.52C212.872 66.9093 211.101 69.128 209.139 71.176C207.176 73.224 205 74.888 202.611 76.168C200.264 77.448 197.682 78.088 194.866 78.088ZM205.747 59.4C206.6 59.4 207.645 58.9733 208.883 58.12C209.821 57.48 210.845 56.6907 211.955 55.752C213.064 54.7707 214.152 53.7467 215.219 52.68C216.285 51.6133 217.203 50.632 217.971 49.736C219.379 48.1147 220.083 46.792 220.083 45.768C220.083 44.9147 219.571 44.488 218.547 44.488C217.523 44.488 216.115 44.9787 214.323 45.96C213.299 46.5147 212.211 47.304 211.059 48.328C209.907 49.352 208.819 50.4613 207.795 51.656C206.813 52.8507 206.024 53.96 205.427 54.984C204.744 56.2213 204.403 57.224 204.403 57.992C204.403 58.9307 204.851 59.4 205.747 59.4ZM355.707 62.472C355.494 62.472 355.387 62.2373 355.387 61.768C355.387 61.3413 355.515 60.744 355.771 59.976C356.198 58.7387 356.944 57.0747 358.011 54.984C359.12 52.8933 360.4 50.568 361.851 48.008C363.344 45.448 364.923 42.8027 366.587 40.072C368.294 37.3413 369.958 34.7173 371.579 32.2C373.243 29.64 374.758 27.336 376.123 25.288C377.531 23.24 378.683 21.6187 379.579 20.424C380.518 19.2293 381.094 18.632 381.307 18.632H381.883C382.267 18.632 382.459 18.76 382.459 19.016C382.459 19.272 382.224 19.6987 381.755 20.296C379.963 22.6427 378.064 25.288 376.059 28.232C374.054 31.1333 372.048 34.1413 370.043 37.256C368.08 40.3707 366.203 43.4427 364.411 46.472C362.619 49.5013 361.019 52.3387 359.611 54.984C358.203 57.6293 357.094 59.8907 356.283 61.768C356.07 62.2373 355.878 62.472 355.707 62.472ZM328.699 70.216C328.486 70.216 328.379 69.9813 328.379 69.512C328.379 69.0853 328.507 68.488 328.763 67.72C329.19 66.4827 329.958 64.776 331.067 62.6C332.219 60.4667 333.584 58.0773 335.163 55.432C336.742 52.744 338.384 49.992 340.091 47.176C339.152 47.304 338.214 47.432 337.275 47.56C336.379 47.688 335.504 47.8373 334.651 48.008C329.147 48.9467 325.115 50.2693 322.555 51.976C320.038 53.64 318.779 55.176 318.779 56.584C318.779 57.4373 319.184 58.184 319.995 58.824C320.08 58.9093 320.123 58.9733 320.123 59.016C320.123 59.0587 320.038 59.08 319.867 59.08C319.611 59.08 319.419 59.016 319.291 58.888C317.456 57.5227 316.539 55.8587 316.539 53.896C316.539 52.488 317.072 51.08 318.139 49.672C319.248 48.264 320.955 46.984 323.259 45.832C325.606 44.6373 328.614 43.72 332.283 43.08C334.075 42.7387 335.888 42.4827 337.723 42.312C339.6 42.1413 341.456 42.0773 343.291 42.12C344.784 39.7733 346.235 37.5547 347.643 35.464C349.051 33.3733 350.31 31.5173 351.419 29.896C352.571 28.232 353.51 26.9307 354.235 25.992C355.003 25.0533 355.472 24.584 355.643 24.584H356.219C356.603 24.584 356.795 24.712 356.795 24.968C356.795 25.224 356.56 25.6507 356.091 26.248C354.47 28.424 352.699 30.8987 350.779 33.672C348.859 36.4027 346.939 39.24 345.019 42.184C347.024 42.312 349.008 42.568 350.971 42.952C351.739 43.1227 352.635 43.3573 353.659 43.656C354.683 43.9547 355.686 44.3387 356.667 44.808C357.691 45.2347 358.566 45.7893 359.291 46.472C360.016 47.1547 360.443 47.9653 360.571 48.904C360.614 49.2027 360.571 49.352 360.443 49.352C360.358 49.3093 360.272 49.2027 360.187 49.032C360.016 48.52 359.44 48.1147 358.459 47.816C357.52 47.5173 356.518 47.304 355.451 47.176C354.427 47.0053 353.659 46.8987 353.147 46.856C351.824 46.728 350.438 46.664 348.987 46.664C346.64 46.664 344.272 46.792 341.883 47.048C340.048 49.9493 338.299 52.808 336.635 55.624C334.971 58.3973 333.499 60.9787 332.219 63.368C330.982 65.7573 330 67.8053 329.275 69.512C329.062 69.9813 328.87 70.216 328.699 70.216ZM373.021 61.64C371.143 61.64 369.565 61.192 368.285 60.296C367.047 59.3573 366.428 58.0133 366.428 56.264C366.428 54.3867 366.877 52.6373 367.773 51.016C368.669 49.3947 369.863 47.9867 371.357 46.792C372.85 45.5547 374.471 44.5947 376.22 43.912C378.013 43.2293 379.783 42.888 381.533 42.888C383.282 42.888 384.583 43.208 385.437 43.848C386.29 44.4453 386.717 45.192 386.717 46.088C386.717 46.9413 386.311 47.8587 385.501 48.84C384.733 49.7787 383.602 50.6107 382.109 51.336C381.17 51.7627 380.082 52.1467 378.845 52.488C377.65 52.7867 376.605 52.936 375.709 52.936C375.026 52.936 374.685 52.8293 374.685 52.616C374.685 52.4453 374.983 52.36 375.581 52.36C376.135 52.36 376.989 52.2107 378.141 51.912C379.335 51.5707 380.487 51.1227 381.597 50.568C382.834 49.8853 383.709 49.2027 384.221 48.52C384.733 47.8373 384.989 47.2187 384.989 46.664C384.989 46.152 384.775 45.7253 384.349 45.384C383.965 45.0427 383.41 44.872 382.685 44.872C382.002 44.872 381.234 45.064 380.381 45.448C379.143 46.0027 377.863 46.92 376.541 48.2C375.261 49.4373 374.194 50.8027 373.341 52.296C372.487 53.7893 372.061 55.2187 372.061 56.584C372.061 57.5227 372.317 58.312 372.829 58.952C373.383 59.592 374.194 59.912 375.26 59.912C376.37 59.912 377.65 59.5707 379.101 58.888C380.551 58.1627 382.023 57.288 383.517 56.264C385.01 55.1973 386.397 54.1307 387.677 53.064C388.957 51.9973 389.981 51.1013 390.749 50.376C391.005 50.12 391.197 49.992 391.325 49.992C391.453 49.992 391.517 50.0987 391.517 50.312C391.517 50.6107 391.389 50.8667 391.133 51.08C389.511 52.5733 387.741 54.1307 385.821 55.752C383.943 57.3733 381.917 58.76 379.741 59.912C377.607 61.0213 375.367 61.5973 373.021 61.64ZM394.451 61.32C392.744 61.32 391.549 60.9147 390.867 60.104C390.184 59.2507 389.843 58.2693 389.843 57.16C389.843 56.0933 390.035 54.9627 390.419 53.768C390.845 52.5733 391.315 51.4427 391.827 50.376C391.272 50.9733 390.739 51.528 390.227 52.04C389.715 52.5093 389.288 52.8933 388.947 53.192C388.776 53.32 388.605 53.384 388.434 53.384C388.221 53.384 388.114 53.2773 388.114 53.064C388.114 52.8507 388.242 52.6587 388.498 52.488C389.395 51.72 390.44 50.6747 391.635 49.352C392.829 48.0293 393.939 46.6853 394.963 45.32C395.816 44.2107 396.84 42.824 398.035 41.16C399.229 39.496 400.445 37.7467 401.683 35.912C402.92 34.0347 403.987 32.328 404.883 30.792C405.011 30.536 405.139 30.216 405.267 29.832C405.437 29.448 405.523 29.1067 405.523 28.808C405.523 28.3813 405.352 28.168 405.01 28.168C404.925 28.168 404.669 28.2533 404.243 28.424C403.859 28.5947 403.475 28.7653 403.091 28.936C402.707 29.1067 402.472 29.192 402.387 29.192C402.045 29.192 402.067 29 402.451 28.616C403.133 28.104 403.987 27.6133 405.01 27.144C406.077 26.632 407.165 26.2053 408.275 25.864C409.384 25.5227 410.323 25.352 411.091 25.352C412.883 25.352 413.779 25.928 413.779 27.08C413.779 27.6773 413.501 28.4667 412.947 29.448C412.477 30.216 411.795 31.1333 410.899 32.2C410.003 33.224 409 34.3333 407.891 35.528C406.824 36.68 405.779 37.832 404.755 38.984C403.731 40.0933 402.877 41.0747 402.195 41.928C402.024 42.1413 401.597 42.696 400.915 43.592C400.275 44.488 399.528 45.576 398.675 46.856C397.864 48.0933 397.032 49.416 396.179 50.824C395.368 52.1893 394.685 53.512 394.131 54.792C393.619 56.0293 393.363 57.0747 393.363 57.928C393.363 59.08 393.917 59.656 395.027 59.656C395.752 59.656 396.669 59.4427 397.779 59.016C398.845 58.632 399.955 58.056 401.107 57.288C402.301 56.4773 403.453 55.624 404.562 54.728C405.715 53.832 406.717 52.9787 407.571 52.168C408.467 51.3573 409.128 50.7387 409.555 50.312C409.811 50.056 410.024 49.928 410.195 49.928C410.365 49.928 410.451 50.0347 410.451 50.248C410.451 50.4613 410.344 50.6747 410.131 50.888C409.448 51.6133 408.509 52.552 407.315 53.704C406.163 54.856 404.861 56.0293 403.411 57.224C402.003 58.376 400.531 59.3573 398.995 60.168C397.459 60.936 395.944 61.32 394.451 61.32ZM413.583 61.64C411.706 61.64 410.127 61.192 408.847 60.296C407.61 59.3573 406.991 58.0133 406.991 56.264C406.991 54.3867 407.439 52.6373 408.335 51.016C409.231 49.3947 410.426 47.9867 411.919 46.792C413.412 45.5547 415.034 44.5947 416.783 43.912C418.575 43.2293 420.346 42.888 422.095 42.888C423.844 42.888 425.146 43.208 425.999 43.848C426.852 44.4453 427.279 45.192 427.279 46.088C427.279 46.9413 426.874 47.8587 426.063 48.84C425.295 49.7787 424.164 50.6107 422.671 51.336C421.732 51.7627 420.644 52.1467 419.407 52.488C418.212 52.7867 417.167 52.936 416.271 52.936C415.588 52.936 415.247 52.8293 415.247 52.616C415.247 52.4453 415.546 52.36 416.143 52.36C416.698 52.36 417.551 52.2107 418.703 51.912C419.898 51.5707 421.05 51.1227 422.159 50.568C423.396 49.8853 424.271 49.2027 424.783 48.52C425.295 47.8373 425.551 47.2187 425.551 46.664C425.551 46.152 425.338 45.7253 424.911 45.384C424.527 45.0427 423.972 44.872 423.247 44.872C422.564 44.872 421.796 45.064 420.943 45.448C419.706 46.0027 418.426 46.92 417.103 48.2C415.823 49.4373 414.756 50.8027 413.903 52.296C413.05 53.7893 412.623 55.2187 412.623 56.584C412.623 57.5227 412.879 58.312 413.391 58.952C413.946 59.592 414.756 59.912 415.823 59.912C416.932 59.912 418.212 59.5707 419.663 58.888C421.114 58.1627 422.586 57.288 424.079 56.264C425.572 55.1973 426.959 54.1307 428.239 53.064C429.519 51.9973 430.543 51.1013 431.311 50.376C431.567 50.12 431.759 49.992 431.887 49.992C432.015 49.992 432.079 50.0987 432.079 50.312C432.079 50.6107 431.951 50.8667 431.695 51.08C430.074 52.5733 428.303 54.1307 426.383 55.752C424.506 57.3733 422.479 58.76 420.303 59.912C418.17 61.0213 415.93 61.5973 413.583 61.64ZM428.805 61.32C428.378 61.32 427.866 61.2133 427.269 61C426.672 60.8293 426.074 60.488 425.477 59.976C425.946 59.336 426.629 58.4827 427.525 57.416C428.378 56.3067 429.296 55.0907 430.277 53.768C431.258 52.4453 432.176 51.1227 433.029 49.8C432.346 50.4827 431.6 51.208 430.789 51.976C429.978 52.744 429.168 53.448 428.357 54.088C428.186 54.2587 427.994 54.344 427.781 54.344C427.61 54.344 427.525 54.2587 427.525 54.088C427.525 53.8747 427.696 53.6187 428.037 53.32C429.232 52.2533 430.554 51.0373 432.005 49.672C433.498 48.264 434.586 46.8347 435.269 45.384C435.482 44.872 435.589 44.4027 435.589 43.976C435.589 43.4213 435.482 43.08 435.269 42.952C435.098 42.824 435.013 42.6533 435.013 42.44C435.013 42.056 435.205 41.864 435.589 41.864C435.802 41.864 435.973 41.9067 436.101 41.992C436.57 42.2053 437.018 42.6107 437.445 43.208C437.872 43.8053 438.085 44.7013 438.085 45.896C438.085 46.5787 438 47.368 437.829 48.264C437.658 49.1173 437.36 50.0987 436.933 51.208C437.573 50.3547 438.213 49.5227 438.853 48.712C439.536 47.9013 440.154 47.176 440.709 46.536C441.861 45.2133 443.013 44.2747 444.165 43.72C445.36 43.1227 446.426 42.824 447.365 42.824C448.474 42.824 449.37 43.144 450.053 43.784C450.736 44.424 451.077 45.256 451.077 46.28C451.077 47.0907 450.864 47.9227 450.437 48.776C450.309 49.1173 450.01 49.6507 449.541 50.376C449.072 51.0587 448.56 51.8053 448.005 52.616C447.45 53.4267 446.938 54.152 446.469 54.792C445.914 55.4747 445.53 56.072 445.317 56.584C445.104 57.0533 444.997 57.4373 444.997 57.736C444.997 58.1627 445.232 58.376 445.701 58.376C446.298 58.376 447.13 58.056 448.197 57.416C448.837 57.032 449.562 56.52 450.373 55.88C451.226 55.1973 452.058 54.5147 452.869 53.832C453.722 53.1067 454.405 52.5093 454.917 52.04C455.088 51.8693 455.237 51.784 455.365 51.784C455.536 51.784 455.621 51.8907 455.621 52.104C455.621 52.36 455.514 52.5947 455.301 52.808C454.021 54.0027 452.528 55.304 450.821 56.712C449.157 58.12 447.514 59.208 445.893 59.976C444.57 60.616 443.354 60.936 442.245 60.936C441.306 60.936 440.56 60.7013 440.005 60.232C439.45 59.72 439.173 58.9947 439.173 58.056C439.173 57.3733 439.344 56.5627 439.685 55.624C440.112 54.472 440.709 53.32 441.477 52.168C442.288 51.016 443.12 49.928 443.973 48.904C444.869 47.8373 445.637 46.9413 446.277 46.216C446.832 45.6187 447.109 45.1067 447.109 44.68C447.109 44.296 446.853 44.104 446.341 44.104C445.829 44.104 445.061 44.4027 444.037 45C443.056 45.5547 441.946 46.472 440.709 47.752C438.96 49.5867 437.424 51.5707 436.101 53.704C434.778 55.8373 433.264 57.8427 431.557 59.72C430.618 60.7867 429.701 61.32 428.805 61.32ZM458.083 61.064C456.76 61.064 455.736 60.6587 455.011 59.848C454.285 58.9947 453.922 57.9067 453.922 56.584C453.922 55.3467 454.242 53.9813 454.883 52.488C455.565 50.9947 456.632 49.48 458.083 47.944C459.576 46.3227 461.432 45.0213 463.651 44.04C465.869 43.016 467.981 42.504 469.987 42.504C471.608 42.504 472.995 42.8667 474.147 43.592C475.299 44.2747 476.067 45.1493 476.451 46.216C476.92 46.216 477.496 46.344 478.179 46.6C478.904 46.856 479.267 47.3253 479.267 48.008C479.267 48.4773 479.032 49.0107 478.563 49.608C478.264 50.0347 477.731 50.6747 476.963 51.528C476.237 52.3813 475.555 53.2987 474.915 54.28C474.403 55.048 473.997 55.7733 473.699 56.456C473.4 57.096 473.251 57.6507 473.251 58.12C473.251 58.76 473.571 59.08 474.211 59.08C474.936 59.08 476.024 58.6747 477.475 57.864C479.053 56.968 480.568 55.944 482.019 54.792C483.469 53.64 484.6 52.7227 485.411 52.04C485.624 51.8693 485.773 51.784 485.859 51.784C486.029 51.784 486.115 51.8907 486.115 52.104C486.115 52.36 486.008 52.5947 485.795 52.808C485.411 53.1493 484.664 53.7893 483.555 54.728C482.445 55.6667 481.165 56.648 479.715 57.672C478.307 58.696 476.92 59.528 475.555 60.168C474.872 60.4667 474.232 60.7013 473.635 60.872C473.08 61 472.568 61.064 472.099 61.064C470.947 61.064 470.072 60.744 469.475 60.104C468.877 59.4213 468.579 58.5467 468.579 57.48C468.579 57.0533 468.643 56.6053 468.771 56.136C468.899 55.6667 469.048 55.1973 469.219 54.728L469.667 53.64C468.557 55.0053 467.448 56.1573 466.339 57.096C465.229 57.992 464.12 58.7813 463.01 59.464C462.072 60.0187 461.176 60.424 460.323 60.68C459.512 60.936 458.765 61.064 458.083 61.064ZM460.067 59.4C460.835 59.4 461.944 58.952 463.395 58.056C464.845 57.1173 466.531 55.688 468.451 53.768C468.707 53.512 469.176 53.064 469.859 52.424C470.584 51.7413 471.352 50.9947 472.163 50.184C472.973 49.3307 473.656 48.4987 474.211 47.688C474.808 46.8347 475.107 46.1307 475.107 45.576C475.107 44.7653 474.403 44.36 472.995 44.36C471.757 44.36 470.264 44.8507 468.515 45.832C466.808 46.7707 465.165 48.1787 463.587 50.056C461.965 51.976 460.771 53.64 460.003 55.048C459.277 56.4133 458.915 57.4587 458.915 58.184C458.915 58.9947 459.299 59.4 460.067 59.4Z" fill="#FDEDED"/>
<path d="M253.606 62.088C250.961 62.088 249.638 60.744 249.638 58.056C249.638 57.5867 249.659 57.1173 249.702 56.648C249.787 56.136 249.915 55.624 250.086 55.112C249.403 56.1787 248.763 57.1173 248.166 57.928C247.569 58.696 247.078 59.2933 246.694 59.72C245.755 60.7867 244.817 61.32 243.878 61.32C243.451 61.32 242.939 61.2133 242.342 61C241.745 60.8293 241.169 60.488 240.614 59.976C241.169 59.208 242.065 57.9493 243.302 56.2C244.497 54.4507 245.755 52.552 247.078 50.504C246.523 51.0587 245.905 51.6347 245.222 52.232C244.582 52.7867 243.985 53.2987 243.43 53.768C243.259 53.9387 243.067 54.024 242.854 54.024C242.683 54.024 242.598 53.9387 242.598 53.768C242.598 53.5547 242.769 53.2987 243.11 53C244.006 52.232 244.859 51.4853 245.67 50.76C246.481 49.992 247.377 49.0107 248.358 47.816C249.339 46.5787 250.491 44.8933 251.814 42.76C254.203 39.0907 256.251 35.72 257.958 32.648C259.665 29.576 260.774 27.1867 261.286 25.48C261.371 25.2667 261.435 25.032 261.478 24.776C261.521 24.52 261.542 24.264 261.542 24.008C261.542 23.6667 261.457 23.368 261.286 23.112C261.115 22.8133 260.795 22.6427 260.326 22.6C260.241 22.6 260.198 22.5573 260.198 22.472C260.198 22.3867 260.241 22.344 260.326 22.344C261.222 22.3867 261.969 22.7067 262.566 23.304C263.163 23.8587 263.547 24.84 263.718 26.248C263.846 27.4 263.526 29.064 262.758 31.24C261.99 33.416 260.945 35.848 259.622 38.536C258.299 41.1813 256.891 43.8053 255.398 46.408C256.934 44.872 258.555 43.6347 260.262 42.696C261.969 41.7147 263.526 41.224 264.934 41.224C266.214 41.224 267.238 41.6293 268.006 42.44C268.774 43.2507 269.158 44.3173 269.158 45.64C269.158 47.0907 268.753 48.6907 267.942 50.44C267.131 52.1467 266.043 53.8107 264.678 55.432C263.014 57.3947 261.158 58.9947 259.11 60.232C257.105 61.4693 255.27 62.088 253.606 62.088ZM253.286 61.512C254.395 61.512 255.654 61.0427 257.062 60.104C258.47 59.1653 259.75 57.8 260.902 56.008C261.755 54.6853 262.374 53.4053 262.758 52.168C263.142 50.9307 263.334 49.8427 263.334 48.904C263.334 47.752 263.078 46.856 262.566 46.216C262.054 45.576 261.371 45.256 260.518 45.256C259.409 45.256 258.15 45.7467 256.742 46.728C255.334 47.6667 254.054 49.032 252.902 50.824C252.049 52.104 251.409 53.3627 250.982 54.6C250.598 55.8373 250.406 56.9467 250.406 57.928C250.406 60.3173 251.366 61.512 253.286 61.512ZM265.023 78.216C262.975 78.216 261.098 77.896 259.391 77.256C257.642 76.6587 256.191 75.6987 255.039 74.376C253.887 73.0533 253.119 71.2827 252.735 69.064C252.65 68.7227 252.735 68.552 252.991 68.552C253.162 68.552 253.29 68.7013 253.375 69C253.844 71.3893 255.018 73.3307 256.895 74.824C258.73 76.3173 260.842 77.064 263.231 77.064C265.45 77.064 267.69 76.4667 269.951 75.272C272.212 74.12 274.41 72.52 276.543 70.472C278.676 68.4667 280.682 66.184 282.559 63.624C284.564 60.8933 286.378 58.056 287.999 55.112C289.663 52.168 291.263 49.2027 292.799 46.216C292.244 47.0267 291.668 47.8587 291.071 48.712C290.474 49.5653 289.876 50.3547 289.279 51.08C288.127 52.5307 286.804 54.024 285.311 55.56C283.86 57.0533 282.41 58.3333 280.959 59.4C279.508 60.424 278.186 60.936 276.991 60.936C276.052 60.936 275.263 60.68 274.623 60.168C274.026 59.656 273.727 58.8667 273.727 57.8C273.727 56.8613 273.898 56.008 274.239 55.24C274.58 54.4293 274.964 53.6827 275.391 53C276.116 51.8053 276.991 50.5893 278.015 49.352C279.039 48.1147 279.935 47.0693 280.703 46.216C281.172 45.6613 281.407 45.2133 281.407 44.872C281.407 44.4453 281.172 44.232 280.703 44.232C280.148 44.232 279.444 44.5733 278.591 45.256C277.567 45.9813 276.522 46.856 275.455 47.88C274.388 48.8613 273.386 49.8 272.447 50.696C271.508 51.592 270.74 52.296 270.143 52.808C269.844 53.0213 269.631 53.128 269.503 53.128C269.332 53.128 269.247 53.0427 269.247 52.872C269.247 52.616 269.396 52.36 269.695 52.104C270.548 51.3787 271.444 50.5253 272.383 49.544C273.364 48.5627 274.324 47.6027 275.263 46.664C276.244 45.6827 277.14 44.8933 277.951 44.296C278.591 43.784 279.252 43.4213 279.935 43.208C280.618 42.952 281.258 42.824 281.855 42.824C282.879 42.824 283.732 43.1227 284.415 43.72C285.14 44.3173 285.503 45.1493 285.503 46.216C285.503 47.0267 285.29 47.88 284.863 48.776C284.351 49.8427 283.69 50.9093 282.879 51.976C282.111 53 281.364 54.0027 280.639 54.984C280.084 55.7947 279.679 56.456 279.423 56.968C279.167 57.48 279.039 57.8427 279.039 58.056C279.039 58.44 279.21 58.632 279.551 58.632C279.892 58.632 280.383 58.44 281.023 58.056C281.706 57.672 282.388 57.1813 283.071 56.584C284.223 55.5173 285.482 54.216 286.847 52.68C288.255 51.1013 289.62 49.4587 290.943 47.752C292.266 46.0453 293.418 44.4667 294.399 43.016C294.996 41.608 295.636 40.3707 296.319 39.304C297.002 38.2373 297.876 37.704 298.943 37.704C299.54 37.704 300.01 37.8747 300.351 38.216C300.735 38.5573 300.927 38.8987 300.927 39.24C300.927 39.5387 300.799 39.7947 300.543 40.008C300.287 40.1787 299.86 40.2427 299.263 40.2C298.794 40.1147 298.26 40.2 297.663 40.456C297.066 40.712 296.447 41.5227 295.807 42.888C295.124 44.424 294.463 46.216 293.823 48.264C293.226 50.312 292.5 52.5093 291.647 54.856C290.794 57.2027 289.663 59.6133 288.255 62.088C286.89 64.6053 285.055 67.08 282.751 69.512C280.49 71.9013 277.802 73.9493 274.687 75.656C271.615 77.3627 268.394 78.216 265.023 78.216Z" fill="#F4A4A4"/>
<path d="M118.492 101.008V108.328C118.492 108.824 118.604 109.184 118.828 109.408C119.068 109.616 119.468 109.72 120.028 109.72H121.708V112H119.548C118.316 112 117.372 111.712 116.716 111.136C116.06 110.56 115.732 109.624 115.732 108.328V101.008H114.172V98.776H115.732V95.488H118.492V98.776H121.708V101.008H118.492ZM127.446 100.696C127.846 100.024 128.374 99.504 129.03 99.136C129.702 98.752 130.494 98.56 131.406 98.56V101.392H130.71C129.638 101.392 128.822 101.664 128.262 102.208C127.718 102.752 127.446 103.696 127.446 105.04V112H124.71V98.776H127.446V100.696ZM133.489 105.328C133.489 104 133.761 102.824 134.305 101.8C134.865 100.776 135.617 99.984 136.561 99.424C137.521 98.848 138.577 98.56 139.729 98.56C140.769 98.56 141.673 98.768 142.441 99.184C143.225 99.584 143.849 100.088 144.313 100.696V98.776H147.073V112H144.313V110.032C143.849 110.656 143.217 111.176 142.417 111.592C141.617 112.008 140.705 112.216 139.681 112.216C138.545 112.216 137.505 111.928 136.561 111.352C135.617 110.76 134.865 109.944 134.305 108.904C133.761 107.848 133.489 106.656 133.489 105.328ZM144.313 105.376C144.313 104.464 144.121 103.672 143.737 103C143.369 102.328 142.881 101.816 142.273 101.464C141.665 101.112 141.009 100.936 140.305 100.936C139.601 100.936 138.945 101.112 138.337 101.464C137.729 101.8 137.233 102.304 136.849 102.976C136.481 103.632 136.297 104.416 136.297 105.328C136.297 106.24 136.481 107.04 136.849 107.728C137.233 108.416 137.729 108.944 138.337 109.312C138.961 109.664 139.617 109.84 140.305 109.84C141.009 109.84 141.665 109.664 142.273 109.312C142.881 108.96 143.369 108.448 143.737 107.776C144.121 107.088 144.313 106.288 144.313 105.376ZM152.538 97.024C152.042 97.024 151.626 96.856 151.29 96.52C150.954 96.184 150.786 95.768 150.786 95.272C150.786 94.776 150.954 94.36 151.29 94.024C151.626 93.688 152.042 93.52 152.538 93.52C153.018 93.52 153.426 93.688 153.762 94.024C154.098 94.36 154.266 94.776 154.266 95.272C154.266 95.768 154.098 96.184 153.762 96.52C153.426 96.856 153.018 97.024 152.538 97.024ZM153.882 98.776V112H151.146V98.776H153.882ZM164.626 98.56C165.666 98.56 166.594 98.776 167.41 99.208C168.242 99.64 168.89 100.28 169.354 101.128C169.818 101.976 170.05 103 170.05 104.2V112H167.338V104.608C167.338 103.424 167.042 102.52 166.45 101.896C165.858 101.256 165.05 100.936 164.026 100.936C163.002 100.936 162.186 101.256 161.578 101.896C160.986 102.52 160.69 103.424 160.69 104.608V112H157.954V98.776H160.69V100.288C161.138 99.744 161.706 99.32 162.394 99.016C163.098 98.712 163.842 98.56 164.626 98.56ZM175.412 97.024C174.916 97.024 174.5 96.856 174.164 96.52C173.828 96.184 173.66 95.768 173.66 95.272C173.66 94.776 173.828 94.36 174.164 94.024C174.5 93.688 174.916 93.52 175.412 93.52C175.892 93.52 176.3 93.688 176.636 94.024C176.972 94.36 177.14 94.776 177.14 95.272C177.14 95.768 176.972 96.184 176.636 96.52C176.3 96.856 175.892 97.024 175.412 97.024ZM176.756 98.776V112H174.02V98.776H176.756ZM187.5 98.56C188.54 98.56 189.468 98.776 190.284 99.208C191.116 99.64 191.764 100.28 192.228 101.128C192.692 101.976 192.924 103 192.924 104.2V112H190.212V104.608C190.212 103.424 189.916 102.52 189.324 101.896C188.732 101.256 187.924 100.936 186.9 100.936C185.876 100.936 185.06 101.256 184.452 101.896C183.86 102.52 183.564 103.424 183.564 104.608V112H180.828V98.776H183.564V100.288C184.012 99.744 184.58 99.32 185.268 99.016C185.972 98.712 186.716 98.56 187.5 98.56ZM202.222 98.56C203.246 98.56 204.15 98.768 204.934 99.184C205.734 99.584 206.358 100.088 206.806 100.696V98.776H209.566V112.216C209.566 113.432 209.31 114.512 208.798 115.456C208.286 116.416 207.542 117.168 206.566 117.712C205.606 118.256 204.454 118.528 203.11 118.528C201.318 118.528 199.83 118.104 198.646 117.256C197.462 116.424 196.79 115.288 196.63 113.848H199.342C199.55 114.536 199.99 115.088 200.662 115.504C201.35 115.936 202.166 116.152 203.11 116.152C204.214 116.152 205.102 115.816 205.774 115.144C206.462 114.472 206.806 113.496 206.806 112.216V110.008C206.342 110.632 205.71 111.16 204.91 111.592C204.126 112.008 203.23 112.216 202.222 112.216C201.07 112.216 200.014 111.928 199.054 111.352C198.11 110.76 197.358 109.944 196.798 108.904C196.254 107.848 195.982 106.656 195.982 105.328C195.982 104 196.254 102.824 196.798 101.8C197.358 100.776 198.11 99.984 199.054 99.424C200.014 98.848 201.07 98.56 202.222 98.56ZM206.806 105.376C206.806 104.464 206.614 103.672 206.23 103C205.862 102.328 205.374 101.816 204.766 101.464C204.158 101.112 203.502 100.936 202.798 100.936C202.094 100.936 201.438 101.112 200.83 101.464C200.222 101.8 199.726 102.304 199.342 102.976C198.974 103.632 198.79 104.416 198.79 105.328C198.79 106.24 198.974 107.04 199.342 107.728C199.726 108.416 200.222 108.944 200.83 109.312C201.454 109.664 202.11 109.84 202.798 109.84C203.502 109.84 204.158 109.664 204.766 109.312C205.374 108.96 205.862 108.448 206.23 107.776C206.614 107.088 206.806 106.288 206.806 105.376ZM223.09 100.744C223.554 100.104 224.186 99.584 224.986 99.184C225.802 98.768 226.706 98.56 227.698 98.56C228.866 98.56 229.922 98.84 230.866 99.4C231.81 99.96 232.554 100.76 233.098 101.8C233.642 102.824 233.914 104 233.914 105.328C233.914 106.656 233.642 107.848 233.098 108.904C232.554 109.944 231.802 110.76 230.842 111.352C229.898 111.928 228.85 112.216 227.698 112.216C226.674 112.216 225.762 112.016 224.962 111.616C224.178 111.216 223.554 110.704 223.09 110.08V112H220.354V94.24H223.09V100.744ZM231.13 105.328C231.13 104.416 230.938 103.632 230.554 102.976C230.186 102.304 229.69 101.8 229.066 101.464C228.458 101.112 227.802 100.936 227.098 100.936C226.41 100.936 225.754 101.112 225.13 101.464C224.522 101.816 224.026 102.328 223.642 103C223.274 103.672 223.09 104.464 223.09 105.376C223.09 106.288 223.274 107.088 223.642 107.776C224.026 108.448 224.522 108.96 225.13 109.312C225.754 109.664 226.41 109.84 227.098 109.84C227.802 109.84 228.458 109.664 229.066 109.312C229.69 108.944 230.186 108.416 230.554 107.728C230.938 107.04 231.13 106.24 231.13 105.328ZM242.836 112.216C241.588 112.216 240.46 111.936 239.452 111.376C238.444 110.8 237.652 110 237.076 108.976C236.5 107.936 236.212 106.736 236.212 105.376C236.212 104.032 236.508 102.84 237.1 101.8C237.692 100.76 238.5 99.96 239.524 99.4C240.548 98.84 241.692 98.56 242.956 98.56C244.22 98.56 245.364 98.84 246.388 99.4C247.412 99.96 248.22 100.76 248.812 101.8C249.404 102.84 249.7 104.032 249.7 105.376C249.7 106.72 249.396 107.912 248.788 108.952C248.18 109.992 247.348 110.8 246.292 111.376C245.252 111.936 244.1 112.216 242.836 112.216ZM242.836 109.84C243.54 109.84 244.196 109.672 244.804 109.336C245.428 109 245.932 108.496 246.316 107.824C246.7 107.152 246.892 106.336 246.892 105.376C246.892 104.416 246.708 103.608 246.34 102.952C245.972 102.28 245.484 101.776 244.876 101.44C244.268 101.104 243.612 100.936 242.908 100.936C242.204 100.936 241.548 101.104 240.94 101.44C240.348 101.776 239.876 102.28 239.524 102.952C239.172 103.608 238.996 104.416 238.996 105.376C238.996 106.8 239.356 107.904 240.076 108.688C240.812 109.456 241.732 109.84 242.836 109.84ZM251.973 105.328C251.973 104 252.245 102.824 252.789 101.8C253.349 100.776 254.101 99.984 255.045 99.424C256.005 98.848 257.069 98.56 258.237 98.56C259.101 98.56 259.949 98.752 260.781 99.136C261.629 99.504 262.301 100 262.797 100.624V94.24H265.557V112H262.797V110.008C262.349 110.648 261.725 111.176 260.925 111.592C260.141 112.008 259.237 112.216 258.213 112.216C257.061 112.216 256.005 111.928 255.045 111.352C254.101 110.76 253.349 109.944 252.789 108.904C252.245 107.848 251.973 106.656 251.973 105.328ZM262.797 105.376C262.797 104.464 262.605 103.672 262.221 103C261.853 102.328 261.365 101.816 260.757 101.464C260.149 101.112 259.493 100.936 258.789 100.936C258.085 100.936 257.429 101.112 256.821 101.464C256.213 101.8 255.717 102.304 255.333 102.976C254.965 103.632 254.781 104.416 254.781 105.328C254.781 106.24 254.965 107.04 255.333 107.728C255.717 108.416 256.213 108.944 256.821 109.312C257.445 109.664 258.101 109.84 258.789 109.84C259.493 109.84 260.149 109.664 260.757 109.312C261.365 108.96 261.853 108.448 262.221 107.776C262.605 107.088 262.797 106.288 262.797 105.376ZM281.534 98.776L273.422 118.216H270.59L273.278 111.784L268.07 98.776H271.118L274.838 108.856L278.702 98.776H281.534ZM332.254 98.56C333.294 98.56 334.222 98.776 335.038 99.208C335.87 99.64 336.518 100.28 336.982 101.128C337.462 101.976 337.702 103 337.702 104.2V112H334.99V104.608C334.99 103.424 334.694 102.52 334.102 101.896C333.51 101.256 332.702 100.936 331.678 100.936C330.654 100.936 329.838 101.256 329.23 101.896C328.638 102.52 328.342 103.424 328.342 104.608V112H325.63V104.608C325.63 103.424 325.334 102.52 324.742 101.896C324.15 101.256 323.342 100.936 322.318 100.936C321.294 100.936 320.478 101.256 319.87 101.896C319.278 102.52 318.982 103.424 318.982 104.608V112H316.246V98.776H318.982V100.288C319.43 99.744 319.998 99.32 320.686 99.016C321.374 98.712 322.11 98.56 322.894 98.56C323.95 98.56 324.894 98.784 325.726 99.232C326.558 99.68 327.198 100.328 327.646 101.176C328.046 100.376 328.67 99.744 329.518 99.28C330.366 98.8 331.278 98.56 332.254 98.56ZM343.055 97.024C342.559 97.024 342.143 96.856 341.807 96.52C341.471 96.184 341.303 95.768 341.303 95.272C341.303 94.776 341.471 94.36 341.807 94.024C342.143 93.688 342.559 93.52 343.055 93.52C343.535 93.52 343.943 93.688 344.279 94.024C344.615 94.36 344.783 94.776 344.783 95.272C344.783 95.768 344.615 96.184 344.279 96.52C343.943 96.856 343.535 97.024 343.055 97.024ZM344.399 98.776V112H341.663V98.776H344.399ZM355.143 98.56C356.183 98.56 357.111 98.776 357.927 99.208C358.759 99.64 359.407 100.28 359.871 101.128C360.335 101.976 360.567 103 360.567 104.2V112H357.855V104.608C357.855 103.424 357.559 102.52 356.967 101.896C356.375 101.256 355.567 100.936 354.543 100.936C353.519 100.936 352.703 101.256 352.095 101.896C351.503 102.52 351.207 103.424 351.207 104.608V112H348.471V98.776H351.207V100.288C351.655 99.744 352.223 99.32 352.911 99.016C353.615 98.712 354.359 98.56 355.143 98.56ZM363.625 105.328C363.625 104 363.897 102.824 364.441 101.8C365.001 100.776 365.753 99.984 366.697 99.424C367.657 98.848 368.721 98.56 369.889 98.56C370.753 98.56 371.601 98.752 372.433 99.136C373.281 99.504 373.953 100 374.449 100.624V94.24H377.209V112H374.449V110.008C374.001 110.648 373.377 111.176 372.577 111.592C371.793 112.008 370.889 112.216 369.865 112.216C368.713 112.216 367.657 111.928 366.697 111.352C365.753 110.76 365.001 109.944 364.441 108.904C363.897 107.848 363.625 106.656 363.625 105.328ZM374.449 105.376C374.449 104.464 374.257 103.672 373.873 103C373.505 102.328 373.017 101.816 372.409 101.464C371.801 101.112 371.145 100.936 370.441 100.936C369.737 100.936 369.081 101.112 368.473 101.464C367.865 101.8 367.369 102.304 366.985 102.976C366.617 103.632 366.433 104.416 366.433 105.328C366.433 106.24 366.617 107.04 366.985 107.728C367.369 108.416 367.865 108.944 368.473 109.312C369.097 109.664 369.753 109.84 370.441 109.84C371.145 109.84 371.801 109.664 372.409 109.312C373.017 108.96 373.505 108.448 373.873 107.776C374.257 107.088 374.449 106.288 374.449 105.376Z" fill="#FDEDED"/>
<path d="M303.681 112L301.617 109.936C300.817 110.736 299.945 111.336 299.001 111.736C298.057 112.12 297.001 112.312 295.833 112.312C294.649 112.312 293.601 112.104 292.689 111.688C291.777 111.272 291.073 110.68 290.577 109.912C290.081 109.128 289.833 108.224 289.833 107.2C289.833 106.048 290.161 105.024 290.817 104.128C291.473 103.216 292.449 102.496 293.745 101.968C293.281 101.408 292.953 100.888 292.761 100.408C292.569 99.912 292.473 99.368 292.473 98.776C292.473 98.04 292.657 97.384 293.025 96.808C293.409 96.232 293.953 95.776 294.657 95.44C295.361 95.104 296.177 94.936 297.105 94.936C298.049 94.936 298.849 95.12 299.505 95.488C300.177 95.84 300.673 96.328 300.993 96.952C301.329 97.576 301.465 98.272 301.401 99.04H298.665C298.681 98.448 298.537 97.992 298.233 97.672C297.929 97.336 297.513 97.168 296.985 97.168C296.457 97.168 296.025 97.328 295.689 97.648C295.369 97.952 295.209 98.328 295.209 98.776C295.209 99.208 295.329 99.64 295.569 100.072C295.825 100.488 296.265 101.032 296.889 101.704L301.305 106.096L303.009 103.288H305.961L303.801 106.984L303.201 107.968L307.257 112H303.681ZM295.833 109.984C297.337 109.984 298.665 109.368 299.817 108.136L295.401 103.696C293.513 104.448 292.569 105.584 292.569 107.104C292.569 107.92 292.873 108.608 293.481 109.168C294.089 109.712 294.873 109.984 295.833 109.984Z" fill="#F4A4A4"/>
</svg>
