<svg width="477" height="102" viewBox="0 0 477 102" fill="none" xmlns="http://www.w3.org/2000/svg">
<path d="M17.024 46.2361C14.976 46.2361 12.9493 45.9801 10.944 45.4681C8.9387 44.9988 7.104 44.2308 5.44 43.1641C3.776 42.0974 2.4533 40.7321 1.472 39.0681C0.4907 37.4041 0 35.3988 0 33.0521C0 30.8334 0.448 28.7001 1.344 26.6521C2.24 24.6041 3.392 22.6841 4.8 20.8921C6.2507 19.1001 7.744 17.5001 9.28 16.0921C11.456 14.1294 13.9307 12.2308 16.704 10.3961C19.4773 8.56136 22.4213 6.91876 25.536 5.46806C28.6933 4.01736 31.872 2.86535 35.072 2.01205C38.272 1.15875 41.344 0.732056 44.288 0.732056C45.568 0.732056 46.9547 0.924056 48.448 1.30806C49.984 1.69206 51.2853 2.33206 52.352 3.22806C53.4613 4.12406 54.016 5.38276 54.016 7.00406C54.016 8.45476 53.5253 9.88406 52.544 11.2921C51.5627 12.7001 50.2613 14.0228 48.64 15.2601C47.0187 16.4974 45.2267 17.6494 43.264 18.7161C41.3013 19.7401 39.296 20.6574 37.248 21.4681C35.2427 22.2361 33.344 22.8548 31.552 23.3241C29.76 23.7934 28.2453 24.0921 27.008 24.2201C26.7093 24.2628 26.4107 24.2841 26.112 24.2841C25.8133 24.2841 25.5147 24.2841 25.216 24.2841C24.96 24.2841 24.4267 24.2628 23.616 24.2201C22.8053 24.1348 22.0373 23.9854 21.312 23.7721C20.5867 23.5588 20.224 23.2388 20.224 22.8121C20.224 22.5988 20.352 22.4921 20.608 22.4921C20.7787 22.4921 20.992 22.5348 21.248 22.6201C21.504 22.7054 21.824 22.7481 22.208 22.7481C23.232 22.7481 24.5547 22.4921 26.176 21.9801C27.7973 21.4681 29.5467 20.7854 31.424 19.9321C33.344 19.0361 35.2427 18.0334 37.12 16.9241C38.9973 15.8148 40.7253 14.6414 42.304 13.4041C43.8827 12.1668 45.1413 10.9294 46.08 9.69205C47.0187 8.45475 47.488 7.28135 47.488 6.17205C47.488 5.14805 47.1253 4.40135 46.4 3.93205C45.6747 3.42005 44.8213 3.07875 43.84 2.90805C42.8587 2.73735 42.0053 2.65206 41.28 2.65206C38.592 2.65206 35.8187 3.05736 32.96 3.86806C30.144 4.67876 27.3493 5.78805 24.576 7.19605C21.8453 8.56135 19.2427 10.0974 16.768 11.8041C14.336 13.5108 12.16 15.2601 10.24 17.0521C8.9173 18.2894 7.5947 19.7188 6.272 21.3401C4.992 22.9188 3.9253 24.6254 3.072 26.4601C2.2187 28.2521 1.792 30.1081 1.792 32.0281C1.792 34.1614 2.304 35.9534 3.328 37.4041C4.352 38.8548 5.6747 40.0281 7.296 40.9241C8.96 41.7774 10.752 42.3961 12.672 42.7801C14.592 43.1641 16.4267 43.3561 18.176 43.3561C19.2853 43.3561 20.3947 43.3134 21.504 43.2281C22.6133 43.1001 23.7013 42.9508 24.768 42.7801C27.6267 42.2681 30.2293 41.6494 32.576 40.9241C34.9653 40.1988 37.248 39.2601 39.424 38.1081C41.6 36.9561 43.8187 35.4628 46.08 33.6281C46.2507 33.5428 46.3573 33.5001 46.4 33.5001C46.6133 33.5001 46.72 33.6281 46.72 33.8841C46.72 34.0121 46.6347 34.2041 46.464 34.4601C44.8 36.2521 42.7733 37.8734 40.384 39.3241C38.0373 40.7748 35.52 42.0121 32.832 43.0361C30.144 44.0601 27.4347 44.8494 24.704 45.4041C21.9733 45.9588 19.4133 46.2361 17.024 46.2361ZM49.392 44.3161C47.728 44.3161 46.4693 43.9108 45.616 43.1001C44.8053 42.2468 44.4 41.1588 44.4 39.8361C44.4 39.0254 44.5067 38.2361 44.72 37.4681C44.9333 36.7001 45.168 36.0174 45.424 35.4201C45.1253 35.7188 44.8267 35.9961 44.528 36.2521C44.272 36.4654 44.0587 36.6361 43.888 36.7641C43.7173 36.8921 43.568 36.9561 43.44 36.9561C43.2693 36.9561 43.184 36.8494 43.184 36.6361C43.184 36.3374 43.3973 35.9961 43.824 35.6121C45.3173 34.3748 46.4907 33.2868 47.344 32.3481C48.1973 31.3668 49.0933 30.4708 50.032 29.6601C51.6107 28.2948 53.296 27.2281 55.088 26.4601C56.88 25.6921 58.672 25.3081 60.464 25.3081C62.3413 25.3081 63.8133 25.7561 64.88 26.6521C65.9467 27.5481 66.48 28.8708 66.48 30.6201C66.48 31.6014 66.1813 32.7321 65.584 34.0121C65.0293 35.2921 64.1333 36.6148 62.896 37.9801C62.384 38.5348 61.808 39.0894 61.168 39.6441C60.528 40.1561 59.9733 40.5401 59.504 40.7961C61.5947 40.5828 63.5573 39.8574 65.392 38.6201C67.2267 37.3401 68.8693 36.0814 70.32 34.8441C70.5333 34.7161 70.6827 34.6521 70.768 34.6521C70.9813 34.6521 71.088 34.7588 71.088 34.9721C71.088 35.1428 70.9813 35.3348 70.768 35.5481C68.9333 37.2974 66.9493 38.7694 64.816 39.9641C62.7253 41.1588 60.4 41.7348 57.84 41.6921C56.3467 42.5028 54.8747 43.1428 53.424 43.6121C52.016 44.0814 50.672 44.3161 49.392 44.3161ZM52.272 42.5241C52.8693 42.5241 53.5093 42.4174 54.192 42.2041C54.8747 41.9908 55.5573 41.7134 56.24 41.3721C55.984 41.3721 55.728 41.2441 55.472 40.9881C55.2587 40.7321 55.152 40.3908 55.152 39.9641C55.152 39.1108 55.472 38.2361 56.112 37.3401C56.752 36.4441 57.5413 35.6761 58.48 35.0361C59.4187 34.3961 60.336 34.0761 61.232 34.0761C61.744 34.0761 62.2133 34.2254 62.64 34.5241C63.1093 34.7801 63.3653 35.1428 63.408 35.6121C64.1333 34.8014 64.624 33.9268 64.88 32.9881C65.1787 32.0494 65.328 31.1748 65.328 30.3641C65.328 29.2548 64.9653 28.4228 64.24 27.8681C63.5573 27.2708 62.6187 26.9721 61.424 26.9721C60.272 26.9721 58.992 27.3774 57.584 28.1881C56.2187 28.9988 54.9173 30.0441 53.68 31.3241C52.4853 32.6041 51.4827 33.9908 50.672 35.4841C49.904 36.9774 49.52 38.4068 49.52 39.7721C49.52 41.6068 50.4373 42.5241 52.272 42.5241ZM73.5465 43.8041C72.2238 43.8041 71.1998 43.3988 70.4745 42.5881C69.7492 41.7348 69.3865 40.6468 69.3865 39.3241C69.3865 38.0868 69.7065 36.7214 70.3465 35.2281C71.0292 33.7348 72.0958 32.2201 73.5465 30.6841C75.0398 29.0628 76.8958 27.7614 79.1145 26.7801C81.3332 25.7561 83.4452 25.2441 85.4505 25.2441C87.0718 25.2441 88.4585 25.6068 89.6105 26.3321C90.763 27.0148 91.531 27.8894 91.915 28.9561C92.384 28.9561 92.96 29.0841 93.643 29.3401C94.368 29.5961 94.731 30.0654 94.731 30.7481C94.731 31.2174 94.496 31.7508 94.027 32.3481C93.728 32.7748 93.195 33.4148 92.427 34.2681C91.701 35.1214 91.019 36.0388 90.3785 37.0201C89.8665 37.7881 89.4612 38.5134 89.1625 39.1961C88.8638 39.8361 88.7145 40.3908 88.7145 40.8601C88.7145 41.5001 89.0345 41.8201 89.6745 41.8201C90.3998 41.8201 91.488 41.4148 92.939 40.6041C94.517 39.7081 96.032 38.6841 97.483 37.5321C98.933 36.3801 100.064 35.4628 100.875 34.7801C101.088 34.6094 101.237 34.5241 101.323 34.5241C101.493 34.5241 101.579 34.6308 101.579 34.8441C101.579 35.1001 101.472 35.3348 101.259 35.5481C100.875 35.8894 100.128 36.5294 99.019 37.4681C97.909 38.4068 96.629 39.3881 95.179 40.4121C93.771 41.4361 92.384 42.2681 91.019 42.9081C90.3358 43.2068 89.6958 43.4414 89.0985 43.6121C88.5438 43.7401 88.0318 43.8041 87.5625 43.8041C86.4105 43.8041 85.5358 43.4841 84.9385 42.8441C84.3412 42.1614 84.0425 41.2868 84.0425 40.2201C84.0425 39.7934 84.1065 39.3454 84.2345 38.8761C84.3625 38.4068 84.5118 37.9374 84.6825 37.4681L85.1305 36.3801C84.0212 37.7454 82.9118 38.8974 81.8025 39.8361C80.6932 40.7321 79.5838 41.5214 78.4745 42.2041C77.5358 42.7588 76.6398 43.1641 75.7865 43.4201C74.9758 43.6761 74.2292 43.8041 73.5465 43.8041ZM75.5305 42.1401C76.2985 42.1401 77.4078 41.6921 78.8585 40.7961C80.3092 39.8574 81.9945 38.4281 83.9145 36.5081C84.1705 36.2521 84.6398 35.8041 85.3225 35.1641C86.0478 34.4814 86.8158 33.7348 87.6265 32.9241C88.4372 32.0708 89.1198 31.2388 89.6745 30.4281C90.2718 29.5748 90.571 28.8708 90.571 28.3161C90.571 27.5054 89.8665 27.1001 88.4585 27.1001C87.2212 27.1001 85.7278 27.5908 83.9785 28.5721C82.2718 29.5108 80.6292 30.9188 79.0505 32.7961C77.4292 34.7161 76.2345 36.3801 75.4665 37.7881C74.7412 39.1534 74.3785 40.1988 74.3785 40.9241C74.3785 41.7348 74.7625 42.1401 75.5305 42.1401ZM106.608 44.3801C104.773 44.3801 103.216 43.9321 101.936 43.0361C100.699 42.0974 100.08 40.7534 100.08 39.0041C100.08 37.1268 100.528 35.3774 101.424 33.7561C102.363 32.1348 103.579 30.7268 105.072 29.5321C106.565 28.2948 108.187 27.3348 109.936 26.6521C111.728 25.9694 113.499 25.6281 115.248 25.6281C116.997 25.6281 118.277 25.9481 119.088 26.5881C119.941 27.2281 120.368 27.9961 120.368 28.8921C120.368 29.4894 120.197 30.0868 119.856 30.6841C119.515 31.2388 119.045 31.5161 118.448 31.5161C118.064 31.5161 117.872 31.3668 117.872 31.0681C117.872 30.8548 117.936 30.6628 118.064 30.4921C118.576 29.5961 118.832 28.8068 118.832 28.1241C118.832 27.2708 118.384 26.8441 117.488 26.8441C116.763 26.8441 115.824 27.1214 114.672 27.6761C113.733 28.1028 112.731 28.7641 111.664 29.6601C110.64 30.5134 109.68 31.5161 108.784 32.6681C107.888 33.7774 107.141 34.9294 106.544 36.1241C105.989 37.2761 105.712 38.3641 105.712 39.3881C105.712 40.3694 105.989 41.1801 106.544 41.8201C107.099 42.4601 107.931 42.7801 109.04 42.7801C109.765 42.7801 110.619 42.6094 111.6 42.2681C112.624 41.9268 113.755 41.3721 114.992 40.6041C116.016 39.9641 117.083 39.1961 118.192 38.3001C119.344 37.4041 120.453 36.4868 121.52 35.5481C122.587 34.6094 123.504 33.7988 124.272 33.1161C124.528 32.8601 124.741 32.7321 124.912 32.7321C125.083 32.7321 125.168 32.8388 125.168 33.0521C125.168 33.3508 125.04 33.6068 124.784 33.8201C123.675 34.8441 122.459 35.9534 121.136 37.1481C119.813 38.3001 118.427 39.3881 116.976 40.4121C115.568 41.4361 114.181 42.2681 112.816 42.9081C110.597 43.8894 108.528 44.3801 106.608 44.3801ZM135.976 43.8041C134.909 43.8041 134.056 43.5054 133.416 42.9081C132.818 42.3108 132.52 41.5001 132.52 40.4761C132.52 39.8361 132.669 39.1108 132.968 38.3001C133.266 37.4894 133.736 36.6574 134.376 35.8041C135.357 34.4814 136.296 33.3294 137.192 32.3481C138.088 31.3241 138.749 30.4068 139.176 29.5961C139.602 28.8281 139.816 28.2308 139.816 27.8041C139.816 27.1641 139.432 26.8441 138.664 26.8441C137.981 26.8441 137 27.2281 135.72 27.9961C134.482 28.7214 133.181 29.9161 131.816 31.5801C131.048 32.5188 130.173 33.6281 129.192 34.9081C128.21 36.1454 127.421 37.2974 126.824 38.3641C126.568 38.8334 126.312 39.3241 126.056 39.8361C125.842 40.3054 125.501 41.1161 125.032 42.2681C124.904 42.5668 124.541 42.8868 123.944 43.2281C123.389 43.5694 122.941 43.7401 122.6 43.7401C122.344 43.7401 122.216 43.6334 122.216 43.4201C122.216 43.2494 122.28 43.0361 122.408 42.7801C122.621 42.3961 123.09 41.1801 123.816 39.1321C124.584 37.0841 125.544 34.6734 126.696 31.9001C126.056 32.5828 125.352 33.3294 124.584 34.1401C123.816 34.9081 122.962 35.6548 122.023 36.3801C121.853 36.5508 121.661 36.6361 121.447 36.6361C121.191 36.6361 121.063 36.5294 121.063 36.3161C121.063 36.1454 121.255 35.9108 121.639 35.6121C122.621 34.7588 123.602 33.8628 124.584 32.9241C125.565 31.9428 126.632 30.7268 127.784 29.2761C128.168 28.3374 128.85 26.9934 129.832 25.2441C130.813 23.4521 131.986 21.4681 133.352 19.2921C134.717 17.1161 136.232 14.9401 137.896 12.7641C139.56 10.5881 141.266 8.64676 143.016 6.94006C144.594 5.40406 146.237 4.23076 147.944 3.42006C149.693 2.60936 151.272 2.20406 152.68 2.20406C153.917 2.20406 154.92 2.50276 155.688 3.10006C156.456 3.69736 156.84 4.65735 156.84 5.98005C156.84 7.30275 156.477 8.71076 155.752 10.2041C155.026 11.6974 154.258 12.8921 153.448 13.7881C151.613 15.8361 149.437 17.7134 146.92 19.4201C144.445 21.1268 141.842 22.5774 139.112 23.7721C139.026 23.8148 138.941 23.8574 138.856 23.9001C138.77 23.9001 138.685 23.9001 138.599 23.9001C138.301 23.9001 138.152 23.7934 138.152 23.5801C138.152 23.3241 138.386 23.1108 138.856 22.9401C140.477 22.2148 142.12 21.3188 143.784 20.2521C145.49 19.1854 147.069 18.0334 148.52 16.7961C149.97 15.5588 151.186 14.3214 152.168 13.0841C153.32 11.6334 154.066 10.4601 154.408 9.56405C154.749 8.62535 154.92 7.83605 154.92 7.19605C154.92 6.34275 154.45 5.91606 153.512 5.91606C153.085 5.91606 152.466 6.12936 151.656 6.55606C150.845 6.94006 149.885 7.58006 148.776 8.47606C147.069 9.84136 145.298 11.5054 143.464 13.4681C141.672 15.4308 139.901 17.5641 138.152 19.8681C136.445 22.1721 134.824 24.5188 133.288 26.9081C131.752 29.2974 130.365 31.6228 129.128 33.8841C129.64 33.1588 130.173 32.4334 130.728 31.7081C131.282 30.9401 131.837 30.2574 132.392 29.6601C133.672 28.2521 134.93 27.2281 136.168 26.5881C137.405 25.9481 138.514 25.6281 139.496 25.6281C140.605 25.6281 141.501 25.9694 142.184 26.6521C142.866 27.2921 143.208 28.1668 143.208 29.2761C143.208 29.8734 143.101 30.4708 142.888 31.0681C142.717 31.6228 142.504 32.1348 142.248 32.6041C141.906 33.3294 141.458 34.1828 140.904 35.1641C140.349 36.1454 139.816 37.0628 139.304 37.9161C138.322 39.4948 137.832 40.6254 137.832 41.3081C137.832 41.6921 138.002 41.8841 138.344 41.8841C138.77 41.8841 139.474 41.5854 140.456 40.9881C141.224 40.5188 142.077 39.9214 143.016 39.1961C143.997 38.4281 144.957 37.6388 145.896 36.8281C146.877 36.0174 147.709 35.3134 148.392 34.7161C149.117 34.0761 149.586 33.6494 149.8 33.4361C150.056 33.1801 150.248 33.0521 150.376 33.0521C150.504 33.0521 150.568 33.1161 150.568 33.2441C150.568 33.4574 150.418 33.7561 150.12 34.1401C149.01 35.2921 147.624 36.5934 145.96 38.0441C144.296 39.4948 142.418 40.9028 140.328 42.2681C139.517 42.8228 138.728 43.2281 137.96 43.4841C137.234 43.6974 136.573 43.8041 135.976 43.8041ZM162.236 24.1561C161.639 24.1561 161.191 23.9641 160.892 23.5801C160.593 23.1961 160.444 22.7908 160.444 22.3641C160.444 21.5108 160.849 20.6788 161.66 19.8681C162.471 19.0148 163.324 18.5881 164.22 18.5881C164.817 18.5881 165.265 18.7801 165.564 19.1641C165.863 19.5481 166.012 19.9534 166.012 20.3801C166.012 21.2761 165.607 22.1294 164.796 22.9401C164.028 23.7508 163.175 24.1561 162.236 24.1561ZM152.444 43.8041C150.695 43.8041 149.5 43.4414 148.86 42.7161C148.263 41.9481 147.964 41.0948 147.964 40.1561C147.964 39.3881 148.092 38.6628 148.348 37.9801C148.604 37.2548 148.817 36.7428 148.988 36.4441C149.244 36.0174 149.585 35.5268 150.012 34.9721C150.481 34.4174 150.993 33.8201 151.548 33.1801C150.695 33.9054 149.884 34.6094 149.116 35.2921C148.391 35.9748 147.793 36.4868 147.324 36.8281C147.196 36.9561 147.068 37.0201 146.94 37.0201C146.769 37.0201 146.684 36.9134 146.684 36.7001C146.684 36.3588 146.919 36.0174 147.388 35.6761C148.497 34.7374 149.564 33.7134 150.588 32.6041C151.655 31.4948 152.657 30.4708 153.596 29.5321C154.535 28.5508 155.367 27.8681 156.092 27.4841C156.86 27.0574 157.479 26.7801 157.948 26.6521C158.417 26.5241 158.801 26.4601 159.1 26.4601C159.569 26.4601 159.911 26.5454 160.124 26.7161C160.337 26.8441 160.38 26.9934 160.252 27.1641C159.527 27.8894 158.801 28.8281 158.076 29.9801C157.393 31.0894 156.753 32.2628 156.156 33.5001C155.559 34.7374 155.068 35.9108 154.684 37.0201C154.343 38.1294 154.172 39.0681 154.172 39.8361C154.172 40.9028 154.599 41.4361 155.452 41.4361C156.263 41.4361 157.308 41.0734 158.588 40.3481C159.911 39.5801 161.276 38.6201 162.684 37.4681C164.135 36.3161 165.479 35.1854 166.716 34.0761C166.887 33.9054 167.036 33.8201 167.164 33.8201C167.377 33.8201 167.484 33.9268 167.484 34.1401C167.527 34.3534 167.484 34.5028 167.356 34.5881C165.948 35.9108 164.348 37.2974 162.556 38.7481C160.807 40.1561 159.036 41.3508 157.244 42.3321C155.495 43.3134 153.895 43.8041 152.444 43.8041ZM165.269 44.0601C164.842 44.0601 164.33 43.9534 163.733 43.7401C163.136 43.5694 162.538 43.2281 161.941 42.7161C162.41 42.0761 163.093 41.2228 163.989 40.1561C164.842 39.0468 165.76 37.8308 166.741 36.5081C167.722 35.1854 168.64 33.8628 169.493 32.5401C168.81 33.2228 168.064 33.9481 167.253 34.7161C166.442 35.4841 165.632 36.1881 164.821 36.8281C164.65 36.9988 164.458 37.0841 164.245 37.0841C164.074 37.0841 163.989 36.9988 163.989 36.8281C163.989 36.6148 164.16 36.3588 164.501 36.0601C165.696 34.9934 167.018 33.7774 168.469 32.4121C169.962 31.0041 171.05 29.5748 171.733 28.1241C171.946 27.6121 172.053 27.1428 172.053 26.7161C172.053 26.1614 171.946 25.8201 171.733 25.6921C171.562 25.5641 171.477 25.3934 171.477 25.1801C171.477 24.7961 171.669 24.6041 172.053 24.6041C172.266 24.6041 172.437 24.6468 172.565 24.7321C173.034 24.9454 173.482 25.3508 173.909 25.9481C174.336 26.5454 174.549 27.4414 174.549 28.6361C174.549 29.3188 174.464 30.1081 174.293 31.0041C174.122 31.8574 173.824 32.8388 173.397 33.9481C174.037 33.0948 174.677 32.2628 175.317 31.4521C176 30.6414 176.618 29.9161 177.173 29.2761C178.325 27.9534 179.477 27.0148 180.629 26.4601C181.824 25.8628 182.89 25.5641 183.829 25.5641C184.938 25.5641 185.834 25.8841 186.517 26.5241C187.2 27.1641 187.541 27.9961 187.541 29.0201C187.541 29.8308 187.328 30.6628 186.901 31.5161C186.773 31.8574 186.474 32.3908 186.005 33.1161C185.536 33.7988 185.024 34.5454 184.469 35.3561C183.914 36.1668 183.402 36.8921 182.933 37.5321C182.378 38.2148 181.994 38.8121 181.781 39.3241C181.568 39.7934 181.461 40.1774 181.461 40.4761C181.461 40.9028 181.696 41.1161 182.165 41.1161C182.762 41.1161 183.594 40.7961 184.661 40.1561C185.301 39.7721 186.026 39.2601 186.837 38.6201C187.69 37.9374 188.522 37.2548 189.333 36.5721C190.186 35.8468 190.869 35.2494 191.381 34.7801C191.552 34.6094 191.701 34.5241 191.829 34.5241C192 34.5241 192.085 34.6308 192.085 34.8441C192.085 35.1001 191.978 35.3348 191.765 35.5481C190.485 36.7428 188.992 38.0441 187.285 39.4521C185.621 40.8601 183.978 41.9481 182.357 42.7161C181.034 43.3561 179.818 43.6761 178.709 43.6761C177.77 43.6761 177.024 43.4414 176.469 42.9721C175.914 42.4601 175.637 41.7348 175.637 40.7961C175.637 40.1134 175.808 39.3028 176.149 38.3641C176.576 37.2121 177.173 36.0601 177.941 34.9081C178.752 33.7561 179.584 32.6681 180.437 31.6441C181.333 30.5774 182.101 29.6814 182.741 28.9561C183.296 28.3588 183.573 27.8468 183.573 27.4201C183.573 27.0361 183.317 26.8441 182.805 26.8441C182.293 26.8441 181.525 27.1428 180.501 27.7401C179.52 28.2948 178.41 29.2121 177.173 30.4921C175.424 32.3268 173.888 34.3108 172.565 36.4441C171.242 38.5774 169.728 40.5828 168.021 42.4601C167.082 43.5268 166.165 44.0601 165.269 44.0601ZM185.33 60.8281C182.728 60.8281 180.573 60.5294 178.866 59.9321C177.16 59.3348 175.794 58.5241 174.77 57.5001C174.088 56.7748 173.448 55.8148 172.85 54.6201C172.253 53.4681 171.954 52.4868 171.954 51.6761C171.954 51.3774 172.018 51.2281 172.146 51.2281C172.445 51.2281 172.637 51.3988 172.722 51.7401C172.722 51.8681 172.872 52.3588 173.17 53.2121C173.426 54.0654 173.917 55.0041 174.642 56.0281C175.368 57.0521 176.434 57.9481 177.842 58.7161C179.25 59.4841 181.085 59.8681 183.346 59.8681C186.034 59.8681 188.445 59.2281 190.578 57.9481C192.712 56.7108 194.611 55.0681 196.275 53.0201C197.981 51.0148 199.539 48.8174 200.947 46.4281C202.355 44.0388 203.699 41.6921 204.979 39.3881C206.259 37.0841 207.56 35.0574 208.883 33.3081C208.328 33.9054 207.624 34.6521 206.771 35.5481C205.96 36.4014 205.085 37.2761 204.147 38.1721C203.208 39.0681 202.312 39.8788 201.459 40.6041C200.605 41.3294 199.901 41.8628 199.347 42.2041C198.408 42.7588 197.512 43.1641 196.659 43.4201C195.848 43.6761 195.101 43.8041 194.419 43.8041C193.096 43.8041 192.072 43.3988 191.347 42.5881C190.621 41.7348 190.258 40.6468 190.258 39.3241C190.258 38.0868 190.578 36.7214 191.219 35.2281C191.901 33.7348 192.968 32.2201 194.419 30.6841C195.912 29.0628 197.768 27.7614 199.987 26.7801C202.205 25.7561 204.317 25.2441 206.323 25.2441C207.048 25.2441 207.752 25.3294 208.435 25.5001C209.117 25.6281 209.736 25.8628 210.291 26.2041C211.059 26.6734 211.613 27.1214 211.955 27.5481C212.339 27.9321 212.616 28.4014 212.787 28.9561C213.043 28.9561 213.448 29.0841 214.003 29.3401C214.557 29.5534 215.069 29.8308 215.539 30.1721C216.008 30.4708 216.243 30.7908 216.243 31.1321C216.243 31.3028 216.072 31.4948 215.731 31.7081C214.877 32.1348 213.917 33.1588 212.851 34.7801C211.784 36.3588 210.589 38.2574 209.267 40.4761C207.987 42.6521 206.536 44.9134 204.915 47.2601C203.336 49.6494 201.565 51.8681 199.603 53.9161C197.64 55.9641 195.464 57.6281 193.075 58.9081C190.728 60.1881 188.146 60.8281 185.33 60.8281ZM196.211 42.1401C197.064 42.1401 198.109 41.7134 199.347 40.8601C200.285 40.2201 201.309 39.4308 202.419 38.4921C203.528 37.5108 204.616 36.4868 205.683 35.4201C206.749 34.3534 207.667 33.3721 208.435 32.4761C209.843 30.8548 210.547 29.5321 210.547 28.5081C210.547 27.6548 210.035 27.2281 209.011 27.2281C207.987 27.2281 206.579 27.7188 204.787 28.7001C203.763 29.2548 202.675 30.0441 201.523 31.0681C200.371 32.0921 199.283 33.2014 198.259 34.3961C197.277 35.5908 196.488 36.7001 195.891 37.7241C195.208 38.9614 194.867 39.9641 194.867 40.7321C194.867 41.6708 195.315 42.1401 196.211 42.1401ZM346.171 45.2121C345.958 45.2121 345.851 44.9774 345.851 44.5081C345.851 44.0814 345.979 43.4841 346.235 42.7161C346.662 41.4788 347.408 39.8148 348.475 37.7241C349.584 35.6334 350.864 33.3081 352.315 30.7481C353.808 28.1881 355.387 25.5428 357.051 22.8121C358.758 20.0814 360.422 17.4574 362.043 14.9401C363.707 12.3801 365.222 10.0761 366.587 8.02806C367.995 5.98006 369.147 4.35875 370.043 3.16405C370.982 1.96935 371.558 1.37206 371.771 1.37206H372.347C372.731 1.37206 372.923 1.50006 372.923 1.75606C372.923 2.01206 372.688 2.43875 372.219 3.03605C370.427 5.38275 368.528 8.02806 366.523 10.9721C364.518 13.8734 362.512 16.8814 360.507 19.9961C358.544 23.1108 356.667 26.1828 354.875 29.2121C353.083 32.2414 351.483 35.0788 350.075 37.7241C348.667 40.3694 347.558 42.6308 346.747 44.5081C346.534 44.9774 346.342 45.2121 346.171 45.2121ZM319.163 52.9561C318.95 52.9561 318.843 52.7214 318.843 52.2521C318.843 51.8254 318.971 51.2281 319.227 50.4601C319.654 49.2228 320.422 47.5161 321.531 45.3401C322.683 43.2068 324.048 40.8174 325.627 38.1721C327.206 35.4841 328.848 32.7321 330.555 29.9161C329.616 30.0441 328.678 30.1721 327.739 30.3001C326.843 30.4281 325.968 30.5774 325.115 30.7481C319.611 31.6868 315.579 33.0094 313.019 34.7161C310.502 36.3801 309.243 37.9161 309.243 39.3241C309.243 40.1774 309.648 40.9241 310.459 41.5641C310.544 41.6494 310.587 41.7134 310.587 41.7561C310.587 41.7988 310.502 41.8201 310.331 41.8201C310.075 41.8201 309.883 41.7561 309.755 41.6281C307.92 40.2628 307.003 38.5988 307.003 36.6361C307.003 35.2281 307.536 33.8201 308.603 32.4121C309.712 31.0041 311.419 29.7241 313.723 28.5721C316.07 27.3774 319.078 26.4601 322.747 25.8201C324.539 25.4788 326.352 25.2228 328.187 25.0521C330.064 24.8814 331.92 24.8174 333.755 24.8601C335.248 22.5134 336.699 20.2948 338.107 18.2041C339.515 16.1134 340.774 14.2574 341.883 12.6361C343.035 10.9721 343.974 9.67076 344.699 8.73206C345.467 7.79336 345.936 7.32405 346.107 7.32405H346.683C347.067 7.32405 347.259 7.45206 347.259 7.70806C347.259 7.96406 347.024 8.39075 346.555 8.98805C344.934 11.1641 343.163 13.6388 341.243 16.4121C339.323 19.1428 337.403 21.9801 335.483 24.9241C337.488 25.0521 339.472 25.3081 341.435 25.6921C342.203 25.8628 343.099 26.0974 344.123 26.3961C345.147 26.6948 346.15 27.0788 347.131 27.5481C348.155 27.9748 349.03 28.5294 349.755 29.2121C350.48 29.8948 350.907 30.7054 351.035 31.6441C351.078 31.9428 351.035 32.0921 350.907 32.0921C350.822 32.0494 350.736 31.9428 350.651 31.7721C350.48 31.2601 349.904 30.8548 348.923 30.5561C347.984 30.2574 346.982 30.0441 345.915 29.9161C344.891 29.7454 344.123 29.6388 343.611 29.5961C342.288 29.4681 340.902 29.4041 339.451 29.4041C337.104 29.4041 334.736 29.5321 332.347 29.7881C330.512 32.6894 328.763 35.5481 327.099 38.3641C325.435 41.1374 323.963 43.7188 322.683 46.1081C321.446 48.4974 320.464 50.5454 319.739 52.2521C319.526 52.7214 319.334 52.9561 319.163 52.9561ZM363.485 44.3801C361.607 44.3801 360.029 43.9321 358.749 43.0361C357.511 42.0974 356.892 40.7534 356.892 39.0041C356.892 37.1268 357.341 35.3774 358.237 33.7561C359.133 32.1348 360.327 30.7268 361.821 29.5321C363.314 28.2948 364.935 27.3348 366.684 26.6521C368.477 25.9694 370.247 25.6281 371.997 25.6281C373.746 25.6281 375.047 25.9481 375.901 26.5881C376.754 27.1854 377.181 27.9321 377.181 28.8281C377.181 29.6814 376.775 30.5988 375.965 31.5801C375.197 32.5188 374.066 33.3508 372.573 34.0761C371.634 34.5028 370.546 34.8868 369.309 35.2281C368.114 35.5268 367.069 35.6761 366.173 35.6761C365.49 35.6761 365.149 35.5694 365.149 35.3561C365.149 35.1854 365.447 35.1001 366.045 35.1001C366.599 35.1001 367.453 34.9508 368.605 34.6521C369.799 34.3108 370.951 33.8628 372.061 33.3081C373.298 32.6254 374.173 31.9428 374.685 31.2601C375.197 30.5774 375.453 29.9588 375.453 29.4041C375.453 28.8921 375.239 28.4654 374.813 28.1241C374.429 27.7828 373.874 27.6121 373.149 27.6121C372.466 27.6121 371.698 27.8041 370.845 28.1881C369.607 28.7428 368.327 29.6601 367.005 30.9401C365.725 32.1774 364.658 33.5428 363.805 35.0361C362.951 36.5294 362.525 37.9588 362.525 39.3241C362.525 40.2628 362.781 41.0521 363.293 41.6921C363.847 42.3321 364.658 42.6521 365.724 42.6521C366.834 42.6521 368.114 42.3108 369.565 41.6281C371.015 40.9028 372.487 40.0281 373.981 39.0041C375.474 37.9374 376.861 36.8708 378.141 35.8041C379.421 34.7374 380.445 33.8414 381.213 33.1161C381.469 32.8601 381.661 32.7321 381.789 32.7321C381.917 32.7321 381.981 32.8388 381.981 33.0521C381.981 33.3508 381.853 33.6068 381.597 33.8201C379.975 35.3134 378.205 36.8708 376.285 38.4921C374.407 40.1134 372.381 41.5001 370.205 42.6521C368.071 43.7614 365.831 44.3374 363.485 44.3801ZM384.915 44.0601C383.208 44.0601 382.013 43.6548 381.331 42.8441C380.648 41.9908 380.307 41.0094 380.307 39.9001C380.307 38.8334 380.499 37.7028 380.883 36.5081C381.309 35.3134 381.779 34.1828 382.291 33.1161C381.736 33.7134 381.203 34.2681 380.691 34.7801C380.179 35.2494 379.752 35.6334 379.411 35.9321C379.24 36.0601 379.069 36.1241 378.898 36.1241C378.685 36.1241 378.578 36.0174 378.578 35.8041C378.578 35.5908 378.706 35.3988 378.962 35.2281C379.859 34.4601 380.904 33.4148 382.099 32.0921C383.293 30.7694 384.403 29.4254 385.427 28.0601C386.28 26.9508 387.304 25.5641 388.499 23.9001C389.693 22.2361 390.909 20.4868 392.147 18.6521C393.384 16.7748 394.451 15.0681 395.347 13.5321C395.475 13.2761 395.603 12.9561 395.731 12.5721C395.901 12.1881 395.987 11.8468 395.987 11.5481C395.987 11.1214 395.816 10.9081 395.474 10.9081C395.389 10.9081 395.133 10.9934 394.707 11.1641C394.323 11.3348 393.939 11.5054 393.555 11.6761C393.171 11.8468 392.936 11.9321 392.851 11.9321C392.509 11.9321 392.531 11.7401 392.915 11.3561C393.597 10.8441 394.451 10.3534 395.474 9.88405C396.541 9.37205 397.629 8.94536 398.739 8.60406C399.848 8.26276 400.787 8.09205 401.555 8.09205C403.347 8.09205 404.243 8.66806 404.243 9.82006C404.243 10.4174 403.965 11.2068 403.411 12.1881C402.941 12.9561 402.259 13.8734 401.363 14.9401C400.467 15.9641 399.464 17.0734 398.355 18.2681C397.288 19.4201 396.243 20.5721 395.219 21.7241C394.195 22.8334 393.341 23.8148 392.659 24.6681C392.488 24.8814 392.061 25.4361 391.379 26.3321C390.739 27.2281 389.992 28.3161 389.139 29.5961C388.328 30.8334 387.496 32.1561 386.643 33.5641C385.832 34.9294 385.149 36.2521 384.595 37.5321C384.083 38.7694 383.827 39.8148 383.827 40.6681C383.827 41.8201 384.381 42.3961 385.491 42.3961C386.216 42.3961 387.133 42.1828 388.243 41.7561C389.309 41.3721 390.419 40.7961 391.571 40.0281C392.765 39.2174 393.917 38.3641 395.026 37.4681C396.179 36.5721 397.181 35.7188 398.035 34.9081C398.931 34.0974 399.592 33.4788 400.019 33.0521C400.275 32.7961 400.488 32.6681 400.659 32.6681C400.829 32.6681 400.915 32.7748 400.915 32.9881C400.915 33.2014 400.808 33.4148 400.595 33.6281C399.912 34.3534 398.973 35.2921 397.779 36.4441C396.627 37.5961 395.325 38.7694 393.875 39.9641C392.467 41.1161 390.995 42.0974 389.459 42.9081C387.923 43.6761 386.408 44.0601 384.915 44.0601ZM404.047 44.3801C402.17 44.3801 400.591 43.9321 399.311 43.0361C398.074 42.0974 397.455 40.7534 397.455 39.0041C397.455 37.1268 397.903 35.3774 398.799 33.7561C399.695 32.1348 400.89 30.7268 402.383 29.5321C403.876 28.2948 405.498 27.3348 407.247 26.6521C409.039 25.9694 410.81 25.6281 412.559 25.6281C414.308 25.6281 415.61 25.9481 416.463 26.5881C417.316 27.1854 417.743 27.9321 417.743 28.8281C417.743 29.6814 417.338 30.5988 416.527 31.5801C415.759 32.5188 414.628 33.3508 413.135 34.0761C412.196 34.5028 411.108 34.8868 409.871 35.2281C408.676 35.5268 407.631 35.6761 406.735 35.6761C406.052 35.6761 405.711 35.5694 405.711 35.3561C405.711 35.1854 406.01 35.1001 406.607 35.1001C407.162 35.1001 408.015 34.9508 409.167 34.6521C410.362 34.3108 411.514 33.8628 412.623 33.3081C413.86 32.6254 414.735 31.9428 415.247 31.2601C415.759 30.5774 416.015 29.9588 416.015 29.4041C416.015 28.8921 415.802 28.4654 415.375 28.1241C414.991 27.7828 414.436 27.6121 413.711 27.6121C413.028 27.6121 412.26 27.8041 411.407 28.1881C410.17 28.7428 408.89 29.6601 407.567 30.9401C406.287 32.1774 405.22 33.5428 404.367 35.0361C403.514 36.5294 403.087 37.9588 403.087 39.3241C403.087 40.2628 403.343 41.0521 403.855 41.6921C404.41 42.3321 405.22 42.6521 406.287 42.6521C407.396 42.6521 408.676 42.3108 410.127 41.6281C411.578 40.9028 413.05 40.0281 414.543 39.0041C416.036 37.9374 417.423 36.8708 418.703 35.8041C419.983 34.7374 421.007 33.8414 421.775 33.1161C422.031 32.8601 422.223 32.7321 422.351 32.7321C422.479 32.7321 422.543 32.8388 422.543 33.0521C422.543 33.3508 422.415 33.6068 422.159 33.8201C420.538 35.3134 418.767 36.8708 416.847 38.4921C414.97 40.1134 412.943 41.5001 410.767 42.6521C408.634 43.7614 406.394 44.3374 404.047 44.3801ZM419.269 44.0601C418.842 44.0601 418.33 43.9534 417.733 43.7401C417.136 43.5694 416.538 43.2281 415.941 42.7161C416.41 42.0761 417.093 41.2228 417.989 40.1561C418.842 39.0468 419.76 37.8308 420.741 36.5081C421.722 35.1854 422.64 33.8628 423.493 32.5401C422.81 33.2228 422.064 33.9481 421.253 34.7161C420.442 35.4841 419.632 36.1881 418.821 36.8281C418.65 36.9988 418.458 37.0841 418.245 37.0841C418.074 37.0841 417.989 36.9988 417.989 36.8281C417.989 36.6148 418.16 36.3588 418.501 36.0601C419.696 34.9934 421.018 33.7774 422.469 32.4121C423.962 31.0041 425.05 29.5748 425.733 28.1241C425.946 27.6121 426.053 27.1428 426.053 26.7161C426.053 26.1614 425.946 25.8201 425.733 25.6921C425.562 25.5641 425.477 25.3934 425.477 25.1801C425.477 24.7961 425.669 24.6041 426.053 24.6041C426.266 24.6041 426.437 24.6468 426.565 24.7321C427.034 24.9454 427.482 25.3508 427.909 25.9481C428.336 26.5454 428.549 27.4414 428.549 28.6361C428.549 29.3188 428.464 30.1081 428.293 31.0041C428.122 31.8574 427.824 32.8388 427.397 33.9481C428.037 33.0948 428.677 32.2628 429.317 31.4521C430 30.6414 430.618 29.9161 431.173 29.2761C432.325 27.9534 433.477 27.0148 434.629 26.4601C435.824 25.8628 436.89 25.5641 437.829 25.5641C438.938 25.5641 439.834 25.8841 440.517 26.5241C441.2 27.1641 441.541 27.9961 441.541 29.0201C441.541 29.8308 441.328 30.6628 440.901 31.5161C440.773 31.8574 440.474 32.3908 440.005 33.1161C439.536 33.7988 439.024 34.5454 438.469 35.3561C437.914 36.1668 437.402 36.8921 436.933 37.5321C436.378 38.2148 435.994 38.8121 435.781 39.3241C435.568 39.7934 435.461 40.1774 435.461 40.4761C435.461 40.9028 435.696 41.1161 436.165 41.1161C436.762 41.1161 437.594 40.7961 438.661 40.1561C439.301 39.7721 440.026 39.2601 440.837 38.6201C441.69 37.9374 442.522 37.2548 443.333 36.5721C444.186 35.8468 444.869 35.2494 445.381 34.7801C445.552 34.6094 445.701 34.5241 445.829 34.5241C446 34.5241 446.085 34.6308 446.085 34.8441C446.085 35.1001 445.978 35.3348 445.765 35.5481C444.485 36.7428 442.992 38.0441 441.285 39.4521C439.621 40.8601 437.978 41.9481 436.357 42.7161C435.034 43.3561 433.818 43.6761 432.709 43.6761C431.77 43.6761 431.024 43.4414 430.469 42.9721C429.914 42.4601 429.637 41.7348 429.637 40.7961C429.637 40.1134 429.808 39.3028 430.149 38.3641C430.576 37.2121 431.173 36.0601 431.941 34.9081C432.752 33.7561 433.584 32.6681 434.437 31.6441C435.333 30.5774 436.101 29.6814 436.741 28.9561C437.296 28.3588 437.573 27.8468 437.573 27.4201C437.573 27.0361 437.317 26.8441 436.805 26.8441C436.293 26.8441 435.525 27.1428 434.501 27.7401C433.52 28.2948 432.41 29.2121 431.173 30.4921C429.424 32.3268 427.888 34.3108 426.565 36.4441C425.242 38.5774 423.728 40.5828 422.021 42.4601C421.082 43.5268 420.165 44.0601 419.269 44.0601ZM448.547 43.8041C447.224 43.8041 446.2 43.3988 445.475 42.5881C444.749 41.7348 444.386 40.6468 444.386 39.3241C444.386 38.0868 444.706 36.7214 445.347 35.2281C446.029 33.7348 447.096 32.2201 448.547 30.6841C450.04 29.0628 451.896 27.7614 454.115 26.7801C456.333 25.7561 458.445 25.2441 460.451 25.2441C462.072 25.2441 463.459 25.6068 464.611 26.3321C465.763 27.0148 466.531 27.8894 466.915 28.9561C467.384 28.9561 467.96 29.0841 468.643 29.3401C469.368 29.5961 469.731 30.0654 469.731 30.7481C469.731 31.2174 469.496 31.7508 469.027 32.3481C468.728 32.7748 468.195 33.4148 467.427 34.2681C466.701 35.1214 466.019 36.0388 465.379 37.0201C464.867 37.7881 464.461 38.5134 464.163 39.1961C463.864 39.8361 463.715 40.3908 463.715 40.8601C463.715 41.5001 464.035 41.8201 464.675 41.8201C465.4 41.8201 466.488 41.4148 467.939 40.6041C469.517 39.7081 471.032 38.6841 472.483 37.5321C473.933 36.3801 475.064 35.4628 475.875 34.7801C476.088 34.6094 476.237 34.5241 476.323 34.5241C476.493 34.5241 476.579 34.6308 476.579 34.8441C476.579 35.1001 476.472 35.3348 476.259 35.5481C475.875 35.8894 475.128 36.5294 474.019 37.4681C472.909 38.4068 471.629 39.3881 470.179 40.4121C468.771 41.4361 467.384 42.2681 466.019 42.9081C465.336 43.2068 464.696 43.4414 464.099 43.6121C463.544 43.7401 463.032 43.8041 462.563 43.8041C461.411 43.8041 460.536 43.4841 459.939 42.8441C459.341 42.1614 459.043 41.2868 459.043 40.2201C459.043 39.7934 459.107 39.3454 459.235 38.8761C459.363 38.4068 459.512 37.9374 459.683 37.4681L460.131 36.3801C459.021 37.7454 457.912 38.8974 456.803 39.8361C455.693 40.7321 454.584 41.5214 453.474 42.2041C452.536 42.7588 451.64 43.1641 450.787 43.4201C449.976 43.6761 449.229 43.8041 448.547 43.8041ZM450.531 42.1401C451.299 42.1401 452.408 41.6921 453.859 40.7961C455.309 39.8574 456.995 38.4281 458.915 36.5081C459.171 36.2521 459.64 35.8041 460.323 35.1641C461.048 34.4814 461.816 33.7348 462.627 32.9241C463.437 32.0708 464.12 31.2388 464.675 30.4281C465.272 29.5748 465.571 28.8708 465.571 28.3161C465.571 27.5054 464.867 27.1001 463.459 27.1001C462.221 27.1001 460.728 27.5908 458.979 28.5721C457.272 29.5108 455.629 30.9188 454.051 32.7961C452.429 34.7161 451.235 36.3801 450.467 37.7881C449.741 39.1534 449.379 40.1988 449.379 40.9241C449.379 41.7348 449.763 42.1401 450.531 42.1401Z" fill="#47A3FF"/>
<path d="M244.07 44.8281C241.425 44.8281 240.102 43.4841 240.102 40.7961C240.102 40.3268 240.123 39.8574 240.166 39.3881C240.251 38.8761 240.379 38.3641 240.55 37.8521C239.867 38.9188 239.227 39.8574 238.63 40.6681C238.033 41.4361 237.542 42.0334 237.158 42.4601C236.219 43.5268 235.281 44.0601 234.342 44.0601C233.915 44.0601 233.403 43.9534 232.806 43.7401C232.209 43.5694 231.633 43.2281 231.078 42.7161C231.633 41.9481 232.529 40.6894 233.766 38.9401C234.961 37.1908 236.219 35.2921 237.542 33.2441C236.987 33.7988 236.369 34.3748 235.686 34.9721C235.046 35.5268 234.449 36.0388 233.894 36.5081C233.723 36.6788 233.531 36.7641 233.318 36.7641C233.147 36.7641 233.062 36.6788 233.062 36.5081C233.062 36.2948 233.233 36.0388 233.574 35.7401C234.47 34.9721 235.323 34.2254 236.134 33.5001C236.945 32.7321 237.841 31.7508 238.822 30.5561C239.803 29.3188 240.955 27.6334 242.278 25.5001C244.667 21.8308 246.715 18.4601 248.422 15.3881C250.129 12.3161 251.238 9.92675 251.75 8.22005C251.835 8.00675 251.899 7.77205 251.942 7.51605C251.985 7.26005 252.006 7.00405 252.006 6.74805C252.006 6.40675 251.921 6.10805 251.75 5.85205C251.579 5.55335 251.259 5.38276 250.79 5.34006C250.705 5.34006 250.662 5.29736 250.662 5.21206C250.662 5.12676 250.705 5.08405 250.79 5.08405C251.686 5.12675 252.433 5.44676 253.03 6.04406C253.627 6.59876 254.011 7.58005 254.182 8.98805C254.31 10.1401 253.99 11.8041 253.222 13.9801C252.454 16.1561 251.409 18.5881 250.086 21.2761C248.763 23.9214 247.355 26.5454 245.862 29.1481C247.398 27.6121 249.019 26.3748 250.726 25.4361C252.433 24.4548 253.99 23.9641 255.398 23.9641C256.678 23.9641 257.702 24.3694 258.47 25.1801C259.238 25.9908 259.622 27.0574 259.622 28.3801C259.622 29.8308 259.217 31.4308 258.406 33.1801C257.595 34.8868 256.507 36.5508 255.142 38.1721C253.478 40.1348 251.622 41.7348 249.574 42.9721C247.569 44.2094 245.734 44.8281 244.07 44.8281ZM243.75 44.2521C244.859 44.2521 246.118 43.7828 247.526 42.8441C248.934 41.9054 250.214 40.5401 251.366 38.7481C252.219 37.4254 252.838 36.1454 253.222 34.9081C253.606 33.6708 253.798 32.5828 253.798 31.6441C253.798 30.4921 253.542 29.5961 253.03 28.9561C252.518 28.3161 251.835 27.9961 250.982 27.9961C249.873 27.9961 248.614 28.4868 247.206 29.4681C245.798 30.4068 244.518 31.7721 243.366 33.5641C242.513 34.8441 241.873 36.1027 241.446 37.34C241.062 38.5773 240.87 39.6868 240.87 40.6681C240.87 43.0574 241.83 44.2521 243.75 44.2521ZM255.487 60.9561C253.439 60.9561 251.562 60.636 249.855 59.996C248.106 59.3987 246.655 58.4388 245.503 57.1161C244.351 55.7934 243.583 54.0228 243.199 51.8041C243.114 51.4628 243.199 51.2921 243.455 51.2921C243.626 51.2921 243.754 51.4414 243.839 51.7401C244.308 54.1294 245.482 56.0707 247.359 57.564C249.194 59.0573 251.306 59.8041 253.695 59.8041C255.914 59.8041 258.154 59.2068 260.415 58.0121C262.676 56.8601 264.874 55.2601 267.007 53.2121C269.14 51.2068 271.146 48.9241 273.023 46.3641C275.028 43.6334 276.842 40.7961 278.463 37.8521C280.127 34.9081 281.727 31.9428 283.263 28.9561C282.708 29.7668 282.132 30.5988 281.535 31.4521C280.938 32.3054 280.34 33.0948 279.743 33.8201C278.591 35.2708 277.268 36.7641 275.775 38.3001C274.324 39.7934 272.874 41.0734 271.423 42.1401C269.972 43.1641 268.65 43.6761 267.455 43.6761C266.516 43.6761 265.727 43.4201 265.087 42.9081C264.49 42.3961 264.191 41.6068 264.191 40.5401C264.191 39.6014 264.362 38.7481 264.703 37.9801C265.044 37.1694 265.428 36.4228 265.855 35.7401C266.58 34.5454 267.455 33.3294 268.479 32.0921C269.503 30.8548 270.399 29.8094 271.167 28.9561C271.636 28.4014 271.871 27.9534 271.871 27.6121C271.871 27.1854 271.636 26.9721 271.167 26.9721C270.612 26.9721 269.908 27.3134 269.055 27.9961C268.031 28.7214 266.986 29.5961 265.919 30.6201C264.852 31.6014 263.85 32.5401 262.911 33.4361C261.972 34.3321 261.204 35.0361 260.607 35.5481C260.308 35.7614 260.095 35.8681 259.967 35.8681C259.796 35.8681 259.711 35.7828 259.711 35.6121C259.711 35.3561 259.86 35.1001 260.159 34.8441C261.012 34.1188 261.908 33.2654 262.847 32.2841C263.828 31.3028 264.788 30.3428 265.727 29.4041C266.708 28.4228 267.604 27.6334 268.415 27.0361C269.055 26.5241 269.716 26.1614 270.399 25.9481C271.082 25.6921 271.722 25.5641 272.319 25.5641C273.343 25.5641 274.196 25.8628 274.879 26.4601C275.604 27.0574 275.967 27.8894 275.967 28.9561C275.967 29.7668 275.754 30.6201 275.327 31.5161C274.815 32.5828 274.154 33.6494 273.343 34.7161C272.575 35.7401 271.828 36.7428 271.103 37.7241C270.548 38.5348 270.143 39.1961 269.887 39.7081C269.631 40.2201 269.503 40.5828 269.503 40.7961C269.503 41.1801 269.674 41.3721 270.015 41.3721C270.356 41.3721 270.847 41.1801 271.487 40.7961C272.17 40.4121 272.852 39.9214 273.535 39.3241C274.687 38.2574 275.946 36.9561 277.311 35.4201C278.719 33.8414 280.084 32.1988 281.407 30.4921C282.73 28.7854 283.882 27.2068 284.863 25.7561C285.46 24.3481 286.1 23.1108 286.783 22.0441C287.466 20.9774 288.34 20.4441 289.407 20.4441C290.004 20.4441 290.474 20.6148 290.815 20.9561C291.199 21.2974 291.391 21.6388 291.391 21.9801C291.391 22.2788 291.263 22.5348 291.007 22.7481C290.751 22.9188 290.324 22.9828 289.727 22.9401C289.258 22.8548 288.724 22.9401 288.127 23.1961C287.53 23.4521 286.911 24.2628 286.271 25.6281C285.588 27.1641 284.927 28.9561 284.287 31.0041C283.69 33.0521 282.964 35.2494 282.111 37.5961C281.258 39.9428 280.127 42.3534 278.719 44.8281C277.354 47.3454 275.519 49.8201 273.215 52.2521C270.954 54.6414 268.266 56.6893 265.151 58.396C262.079 60.1027 258.858 60.9561 255.487 60.9561Z" fill="#FF8CA3"/>
<path d="M108.956 83.7481V91.0681C108.956 91.5641 109.068 91.9241 109.292 92.1481C109.532 92.3561 109.932 92.4601 110.492 92.4601H112.172V94.7401H110.012C108.78 94.7401 107.836 94.4521 107.18 93.8761C106.524 93.3001 106.196 92.3641 106.196 91.0681V83.7481H104.636V81.5161H106.196V78.2281H108.956V81.5161H112.172V83.7481H108.956ZM117.91 83.4361C118.31 82.7641 118.838 82.2441 119.494 81.8761C120.166 81.4921 120.958 81.3 121.87 81.3V84.132H121.174C120.102 84.132 119.286 84.4041 118.726 84.9481C118.182 85.4921 117.91 86.4361 117.91 87.7801V94.7401H115.174V81.5161H117.91V83.4361ZM123.953 88.0681C123.953 86.7401 124.225 85.5641 124.769 84.5401C125.329 83.5161 126.081 82.7241 127.025 82.1641C127.985 81.5881 129.041 81.3 130.193 81.3C131.233 81.3 132.137 81.5081 132.905 81.9241C133.689 82.3241 134.313 82.8281 134.777 83.4361V81.5161H137.537V94.7401H134.777V92.772C134.313 93.396 133.681 93.9161 132.881 94.3321C132.081 94.7481 131.169 94.9561 130.145 94.9561C129.009 94.9561 127.969 94.6681 127.025 94.0921C126.081 93.5001 125.329 92.6841 124.769 91.6441C124.225 90.5881 123.953 89.3961 123.953 88.0681ZM134.777 88.1161C134.777 87.2041 134.585 86.4121 134.201 85.7401C133.833 85.0681 133.345 84.5561 132.737 84.2041C132.129 83.8521 131.473 83.6761 130.769 83.6761C130.065 83.6761 129.409 83.8521 128.801 84.2041C128.193 84.5401 127.697 85.044 127.313 85.716C126.945 86.372 126.761 87.1561 126.761 88.0681C126.761 88.9801 126.945 89.78 127.313 90.468C127.697 91.156 128.193 91.684 128.801 92.052C129.425 92.404 130.081 92.58 130.769 92.58C131.473 92.58 132.129 92.404 132.737 92.052C133.345 91.7 133.833 91.1881 134.201 90.5161C134.585 89.8281 134.777 89.0281 134.777 88.1161ZM143.002 79.7641C142.506 79.7641 142.09 79.5961 141.754 79.2601C141.418 78.9241 141.25 78.5081 141.25 78.0121C141.25 77.5161 141.418 77.1001 141.754 76.7641C142.09 76.4281 142.506 76.2601 143.002 76.2601C143.482 76.2601 143.89 76.4281 144.226 76.7641C144.562 77.1001 144.73 77.5161 144.73 78.0121C144.73 78.5081 144.562 78.9241 144.226 79.2601C143.89 79.5961 143.482 79.7641 143.002 79.7641ZM144.346 81.5161V94.7401H141.61V81.5161H144.346ZM155.09 81.3C156.13 81.3 157.058 81.5161 157.874 81.9481C158.706 82.3801 159.354 83.0201 159.818 83.8681C160.282 84.7161 160.514 85.74 160.514 86.94V94.7401H157.802V87.3481C157.802 86.1641 157.506 85.2601 156.914 84.6361C156.322 83.9961 155.514 83.6761 154.49 83.6761C153.466 83.6761 152.65 83.9961 152.042 84.6361C151.45 85.2601 151.154 86.1641 151.154 87.3481V94.7401H148.418V81.5161H151.154V83.0281C151.602 82.4841 152.17 82.0601 152.858 81.7561C153.562 81.4521 154.306 81.3 155.09 81.3ZM165.876 79.7641C165.38 79.7641 164.964 79.5961 164.628 79.2601C164.292 78.9241 164.124 78.5081 164.124 78.0121C164.124 77.5161 164.292 77.1001 164.628 76.7641C164.964 76.4281 165.38 76.2601 165.876 76.2601C166.356 76.2601 166.764 76.4281 167.1 76.7641C167.436 77.1001 167.604 77.5161 167.604 78.0121C167.604 78.5081 167.436 78.9241 167.1 79.2601C166.764 79.5961 166.356 79.7641 165.876 79.7641ZM167.22 81.5161V94.7401H164.484V81.5161H167.22ZM177.964 81.3C179.004 81.3 179.932 81.5161 180.748 81.9481C181.58 82.3801 182.228 83.0201 182.692 83.8681C183.156 84.7161 183.388 85.74 183.388 86.94V94.7401H180.676V87.3481C180.676 86.1641 180.38 85.2601 179.788 84.6361C179.196 83.9961 178.388 83.6761 177.364 83.6761C176.34 83.6761 175.524 83.9961 174.916 84.6361C174.324 85.2601 174.028 86.1641 174.028 87.3481V94.7401H171.292V81.5161H174.028V83.0281C174.476 82.4841 175.044 82.0601 175.732 81.7561C176.436 81.4521 177.18 81.3 177.964 81.3ZM192.686 81.3C193.71 81.3 194.614 81.5081 195.398 81.9241C196.198 82.3241 196.822 82.8281 197.27 83.4361V81.5161H200.03V94.9561C200.03 96.1721 199.774 97.2521 199.262 98.1961C198.75 99.1561 198.006 99.9081 197.03 100.452C196.07 100.996 194.918 101.268 193.574 101.268C191.782 101.268 190.294 100.844 189.11 99.996C187.926 99.164 187.254 98.0281 187.094 96.5881H189.806C190.014 97.2761 190.454 97.828 191.126 98.244C191.814 98.676 192.63 98.8921 193.574 98.8921C194.678 98.8921 195.566 98.556 196.238 97.884C196.926 97.212 197.27 96.2361 197.27 94.9561V92.7481C196.806 93.3721 196.174 93.9001 195.374 94.3321C194.59 94.7481 193.694 94.9561 192.686 94.9561C191.534 94.9561 190.478 94.6681 189.518 94.0921C188.574 93.5001 187.822 92.6841 187.262 91.6441C186.718 90.5881 186.446 89.3961 186.446 88.0681C186.446 86.7401 186.718 85.5641 187.262 84.5401C187.822 83.5161 188.574 82.7241 189.518 82.1641C190.478 81.5881 191.534 81.3 192.686 81.3ZM197.27 88.1161C197.27 87.2041 197.078 86.4121 196.694 85.7401C196.326 85.0681 195.838 84.5561 195.23 84.2041C194.622 83.8521 193.966 83.6761 193.262 83.6761C192.558 83.6761 191.902 83.8521 191.294 84.2041C190.686 84.5401 190.19 85.044 189.806 85.716C189.438 86.372 189.254 87.1561 189.254 88.0681C189.254 88.9801 189.438 89.78 189.806 90.468C190.19 91.156 190.686 91.684 191.294 92.052C191.918 92.404 192.574 92.58 193.262 92.58C193.966 92.58 194.622 92.404 195.23 92.052C195.838 91.7 196.326 91.1881 196.694 90.5161C197.078 89.8281 197.27 89.0281 197.27 88.1161ZM213.554 83.4841C214.018 82.8441 214.65 82.3241 215.45 81.9241C216.266 81.5081 217.17 81.3 218.162 81.3C219.33 81.3 220.386 81.5801 221.33 82.1401C222.274 82.7001 223.018 83.5001 223.562 84.5401C224.106 85.5641 224.378 86.7401 224.378 88.0681C224.378 89.3961 224.106 90.5881 223.562 91.6441C223.018 92.6841 222.266 93.5001 221.306 94.0921C220.362 94.6681 219.314 94.9561 218.162 94.9561C217.138 94.9561 216.226 94.756 215.426 94.356C214.642 93.956 214.018 93.4441 213.554 92.8201V94.7401H210.818V76.9801H213.554V83.4841ZM221.594 88.0681C221.594 87.1561 221.402 86.372 221.018 85.716C220.65 85.044 220.154 84.5401 219.53 84.2041C218.922 83.8521 218.266 83.6761 217.562 83.6761C216.874 83.6761 216.218 83.8521 215.594 84.2041C214.986 84.5561 214.49 85.0681 214.106 85.7401C213.738 86.4121 213.554 87.2041 213.554 88.1161C213.554 89.0281 213.738 89.8281 214.106 90.5161C214.49 91.1881 214.986 91.7 215.594 92.052C216.218 92.404 216.874 92.58 217.562 92.58C218.266 92.58 218.922 92.404 219.53 92.052C220.154 91.684 220.65 91.156 221.018 90.468C221.402 89.78 221.594 88.9801 221.594 88.0681ZM233.3 94.9561C232.052 94.9561 230.924 94.6761 229.916 94.1161C228.908 93.5401 228.116 92.74 227.54 91.716C226.964 90.676 226.676 89.4761 226.676 88.1161C226.676 86.7721 226.972 85.5801 227.564 84.5401C228.156 83.5001 228.964 82.7001 229.988 82.1401C231.012 81.5801 232.156 81.3 233.42 81.3C234.684 81.3 235.828 81.5801 236.852 82.1401C237.876 82.7001 238.684 83.5001 239.276 84.5401C239.868 85.5801 240.164 86.7721 240.164 88.1161C240.164 89.4601 239.86 90.6521 239.252 91.6921C238.644 92.7321 237.812 93.5401 236.756 94.1161C235.716 94.6761 234.564 94.9561 233.3 94.9561ZM233.3 92.58C234.004 92.58 234.66 92.412 235.268 92.076C235.892 91.74 236.396 91.2361 236.78 90.5641C237.164 89.8921 237.356 89.0761 237.356 88.1161C237.356 87.1561 237.172 86.3481 236.804 85.6921C236.436 85.0201 235.948 84.5161 235.34 84.1801C234.732 83.8441 234.076 83.6761 233.372 83.6761C232.668 83.6761 232.012 83.8441 231.404 84.1801C230.812 84.5161 230.34 85.0201 229.988 85.6921C229.636 86.3481 229.46 87.1561 229.46 88.1161C229.46 89.5401 229.82 90.6441 230.54 91.4281C231.276 92.1961 232.196 92.58 233.3 92.58ZM242.437 88.0681C242.437 86.7401 242.709 85.5641 243.253 84.5401C243.813 83.5161 244.565 82.7241 245.509 82.1641C246.469 81.5881 247.533 81.3 248.701 81.3C249.565 81.3 250.413 81.4921 251.245 81.8761C252.093 82.2441 252.765 82.7401 253.261 83.3641V76.9801H256.021V94.7401H253.261V92.7481C252.813 93.3881 252.189 93.9161 251.389 94.3321C250.605 94.7481 249.701 94.9561 248.677 94.9561C247.525 94.9561 246.469 94.6681 245.509 94.0921C244.565 93.5001 243.813 92.6841 243.253 91.6441C242.709 90.5881 242.437 89.3961 242.437 88.0681ZM253.261 88.1161C253.261 87.2041 253.069 86.4121 252.685 85.7401C252.317 85.0681 251.829 84.5561 251.221 84.2041C250.613 83.8521 249.957 83.6761 249.253 83.6761C248.549 83.6761 247.893 83.8521 247.285 84.2041C246.677 84.5401 246.181 85.044 245.797 85.716C245.429 86.372 245.245 87.1561 245.245 88.0681C245.245 88.9801 245.429 89.78 245.797 90.468C246.181 91.156 246.677 91.684 247.285 92.052C247.909 92.404 248.565 92.58 249.253 92.58C249.957 92.58 250.613 92.404 251.221 92.052C251.829 91.7 252.317 91.1881 252.685 90.5161C253.069 89.8281 253.261 89.0281 253.261 88.1161ZM271.998 81.5161L263.886 100.956H261.054L263.742 94.524L258.534 81.5161H261.582L265.302 91.5961L269.166 81.5161H271.998ZM322.718 81.3C323.758 81.3 324.686 81.5161 325.502 81.9481C326.334 82.3801 326.982 83.0201 327.446 83.8681C327.926 84.7161 328.166 85.74 328.166 86.94V94.7401H325.454V87.3481C325.454 86.1641 325.158 85.2601 324.566 84.6361C323.974 83.9961 323.166 83.6761 322.142 83.6761C321.118 83.6761 320.302 83.9961 319.694 84.6361C319.102 85.2601 318.806 86.1641 318.806 87.3481V94.7401H316.094V87.3481C316.094 86.1641 315.798 85.2601 315.206 84.6361C314.614 83.9961 313.806 83.6761 312.782 83.6761C311.758 83.6761 310.942 83.9961 310.334 84.6361C309.742 85.2601 309.446 86.1641 309.446 87.3481V94.7401H306.71V81.5161H309.446V83.0281C309.894 82.4841 310.462 82.0601 311.15 81.7561C311.838 81.4521 312.574 81.3 313.358 81.3C314.414 81.3 315.358 81.5241 316.19 81.9721C317.022 82.4201 317.662 83.0681 318.11 83.9161C318.51 83.1161 319.134 82.4841 319.982 82.0201C320.83 81.5401 321.742 81.3 322.718 81.3ZM333.519 79.7641C333.023 79.7641 332.607 79.5961 332.271 79.2601C331.935 78.9241 331.767 78.5081 331.767 78.0121C331.767 77.5161 331.935 77.1001 332.271 76.7641C332.607 76.4281 333.023 76.2601 333.519 76.2601C333.999 76.2601 334.407 76.4281 334.743 76.7641C335.079 77.1001 335.247 77.5161 335.247 78.0121C335.247 78.5081 335.079 78.9241 334.743 79.2601C334.407 79.5961 333.999 79.7641 333.519 79.7641ZM334.863 81.5161V94.7401H332.127V81.5161H334.863ZM345.607 81.3C346.647 81.3 347.575 81.5161 348.391 81.9481C349.223 82.3801 349.871 83.0201 350.335 83.8681C350.799 84.7161 351.031 85.74 351.031 86.94V94.7401H348.319V87.3481C348.319 86.1641 348.023 85.2601 347.431 84.6361C346.839 83.9961 346.031 83.6761 345.007 83.6761C343.983 83.6761 343.167 83.9961 342.559 84.6361C341.967 85.2601 341.671 86.1641 341.671 87.3481V94.7401H338.935V81.5161H341.671V83.0281C342.119 82.4841 342.687 82.0601 343.375 81.7561C344.079 81.4521 344.823 81.3 345.607 81.3ZM354.089 88.0681C354.089 86.7401 354.361 85.5641 354.905 84.5401C355.465 83.5161 356.217 82.7241 357.161 82.1641C358.121 81.5881 359.185 81.3 360.353 81.3C361.217 81.3 362.065 81.4921 362.897 81.8761C363.745 82.2441 364.417 82.7401 364.913 83.3641V76.9801H367.673V94.7401H364.913V92.7481C364.465 93.3881 363.841 93.9161 363.041 94.3321C362.257 94.7481 361.353 94.9561 360.329 94.9561C359.177 94.9561 358.121 94.6681 357.161 94.0921C356.217 93.5001 355.465 92.6841 354.905 91.6441C354.361 90.5881 354.089 89.3961 354.089 88.0681ZM364.913 88.1161C364.913 87.2041 364.721 86.4121 364.337 85.7401C363.969 85.0681 363.481 84.5561 362.873 84.2041C362.265 83.8521 361.609 83.6761 360.905 83.6761C360.201 83.6761 359.545 83.8521 358.937 84.2041C358.329 84.5401 357.833 85.044 357.449 85.716C357.081 86.372 356.897 87.1561 356.897 88.0681C356.897 88.9801 357.081 89.78 357.449 90.468C357.833 91.156 358.329 91.684 358.937 92.052C359.561 92.404 360.217 92.58 360.905 92.58C361.609 92.58 362.265 92.404 362.873 92.052C363.481 91.7 363.969 91.1881 364.337 90.5161C364.721 89.8281 364.913 89.0281 364.913 88.1161Z" fill="#47A3FF"/>
<path d="M294.145 94.7401L292.081 92.6761C291.281 93.4761 290.409 94.0761 289.465 94.4761C288.521 94.8601 287.465 95.052 286.297 95.052C285.113 95.052 284.065 94.8441 283.153 94.4281C282.241 94.0121 281.537 93.4201 281.041 92.6521C280.545 91.8681 280.297 90.964 280.297 89.94C280.297 88.788 280.625 87.7641 281.281 86.8681C281.937 85.9561 282.913 85.2361 284.209 84.7081C283.745 84.1481 283.417 83.6281 283.225 83.1481C283.033 82.6521 282.937 82.1081 282.937 81.5161C282.937 80.7801 283.121 80.124 283.489 79.548C283.873 78.972 284.417 78.5161 285.121 78.1801C285.825 77.8441 286.641 77.6761 287.569 77.6761C288.513 77.6761 289.313 77.8601 289.969 78.2281C290.641 78.5801 291.137 79.0681 291.457 79.6921C291.793 80.3161 291.929 81.0121 291.865 81.7801H289.129C289.145 81.1881 289.001 80.732 288.697 80.412C288.393 80.076 287.977 79.9081 287.449 79.9081C286.921 79.9081 286.489 80.0681 286.153 80.3881C285.833 80.6921 285.673 81.0681 285.673 81.5161C285.673 81.9481 285.793 82.3801 286.033 82.8121C286.289 83.2281 286.729 83.7721 287.353 84.4441L291.769 88.8361L293.473 86.0281H296.425L294.265 89.7241L293.665 90.7081L297.721 94.7401H294.145ZM286.297 92.7241C287.801 92.7241 289.129 92.1081 290.281 90.8761L285.865 86.4361C283.977 87.1881 283.033 88.3241 283.033 89.8441C283.033 90.6601 283.337 91.3481 283.945 91.9081C284.553 92.4521 285.337 92.7241 286.297 92.7241Z" fill="#FF8CA3"/>
</svg>
